<svg width="1200" height="1000" viewBox="0 0 1200 1000" xmlns="http://www.w3.org/2000/svg">

  <defs>
    <linearGradient id="bgGrad" x1="0" y1="0" x2="1" y2="1">
      <stop offset="0%" stop-color="#030305"/>
      <stop offset="55%" stop-color="#0b0713"/>
      <stop offset="100%" stop-color="#170a26"/>
    </linearGradient>
    <radialGradient id="glow" cx="50%" cy="50%" r="60%">
      <stop offset="0%" stop-color="#c084fc" stop-opacity="0.35"/>
      <stop offset="100%" stop-color="#c084fc" stop-opacity="0"/>
    </radialGradient>
    <linearGradient id="lineGrad" x1="0" y1="0" x2="1" y2="0">
      <stop offset="0%" stop-color="#c084fc" stop-opacity="0"/>
      <stop offset="50%" stop-color="#c084fc" stop-opacity="0.9"/>
      <stop offset="100%" stop-color="#a855f7" stop-opacity="0"/>
    </linearGradient>
    <radialGradient id="nodeGrad" cx="35%" cy="35%" r="65%">
      <stop offset="0%" stop-color="#c084fc"/>
      <stop offset="100%" stop-color="#6d28d9"/>
    </radialGradient>
    <filter id="blurSm" x="-50%" y="-50%" width="200%" height="200%">
      <feGaussianBlur stdDeviation="6"/>
    </filter>
    <filter id="blurLg" x="-50%" y="-50%" width="200%" height="200%">
      <feGaussianBlur stdDeviation="45"/>
    </filter>
    
  </defs>

  <rect width="1200" height="1000" fill="url(#bgGrad)"/>
  <circle cx="900.0" cy="250.0" r="420" fill="url(#glow)" filter="url(#blurLg)"/>
<circle cx="0" cy="0" r="1" fill="#ffffff" opacity="0.045"/>
<circle cx="0" cy="46" r="1" fill="#ffffff" opacity="0.045"/>
<circle cx="0" cy="92" r="1" fill="#ffffff" opacity="0.045"/>
<circle cx="0" cy="138" r="1" fill="#ffffff" opacity="0.045"/>
<circle cx="0" cy="184" r="1" fill="#ffffff" opacity="0.045"/>
<circle cx="0" cy="230" r="1" fill="#ffffff" opacity="0.045"/>
<circle cx="0" cy="276" r="1" fill="#ffffff" opacity="0.045"/>
<circle cx="0" cy="322" r="1" fill="#ffffff" opacity="0.045"/>
<circle cx="0" cy="368" r="1" fill="#ffffff" opacity="0.045"/>
<circle cx="0" cy="414" r="1" fill="#ffffff" opacity="0.045"/>
<circle cx="0" cy="460" r="1" fill="#ffffff" opacity="0.045"/>
<circle cx="0" cy="506" r="1" fill="#ffffff" opacity="0.045"/>
<circle cx="0" cy="552" r="1" fill="#ffffff" opacity="0.045"/>
<circle cx="0" cy="598" r="1" fill="#ffffff" opacity="0.045"/>
<circle cx="0" cy="644" r="1" fill="#ffffff" opacity="0.045"/>
<circle cx="0" cy="690" r="1" fill="#ffffff" opacity="0.045"/>
<circle cx="0" cy="736" r="1" fill="#ffffff" opacity="0.045"/>
<circle cx="0" cy="782" r="1" fill="#ffffff" opacity="0.045"/>
<circle cx="0" cy="828" r="1" fill="#ffffff" opacity="0.045"/>
<circle cx="0" cy="874" r="1" fill="#ffffff" opacity="0.045"/>
<circle cx="0" cy="920" r="1" fill="#ffffff" opacity="0.045"/>
<circle cx="0" cy="966" r="1" fill="#ffffff" opacity="0.045"/>
<circle cx="46" cy="0" r="1" fill="#ffffff" opacity="0.045"/>
<circle cx="46" cy="46" r="1" fill="#ffffff" opacity="0.045"/>
<circle cx="46" cy="92" r="1" fill="#ffffff" opacity="0.045"/>
<circle cx="46" cy="138" r="1" fill="#ffffff" opacity="0.045"/>
<circle cx="46" cy="184" r="1" fill="#ffffff" opacity="0.045"/>
<circle cx="46" cy="230" r="1" fill="#ffffff" opacity="0.045"/>
<circle cx="46" cy="276" r="1" fill="#ffffff" opacity="0.045"/>
<circle cx="46" cy="322" r="1" fill="#ffffff" opacity="0.045"/>
<circle cx="46" cy="368" r="1" fill="#ffffff" opacity="0.045"/>
<circle cx="46" cy="414" r="1" fill="#ffffff" opacity="0.045"/>
<circle cx="46" cy="460" r="1" fill="#ffffff" opacity="0.045"/>
<circle cx="46" cy="506" r="1" fill="#ffffff" opacity="0.045"/>
<circle cx="46" cy="552" r="1" fill="#ffffff" opacity="0.045"/>
<circle cx="46" cy="598" r="1" fill="#ffffff" opacity="0.045"/>
<circle cx="46" cy="644" r="1" fill="#ffffff" opacity="0.045"/>
<circle cx="46" cy="690" r="1" fill="#ffffff" opacity="0.045"/>
<circle cx="46" cy="736" r="1" fill="#ffffff" opacity="0.045"/>
<circle cx="46" cy="782" r="1" fill="#ffffff" opacity="0.045"/>
<circle cx="46" cy="828" r="1" fill="#ffffff" opacity="0.045"/>
<circle cx="46" cy="874" r="1" fill="#ffffff" opacity="0.045"/>
<circle cx="46" cy="920" r="1" fill="#ffffff" opacity="0.045"/>
<circle cx="46" cy="966" r="1" fill="#ffffff" opacity="0.045"/>
<circle cx="92" cy="0" r="1" fill="#ffffff" opacity="0.045"/>
<circle cx="92" cy="46" r="1" fill="#ffffff" opacity="0.045"/>
<circle cx="92" cy="92" r="1" fill="#ffffff" opacity="0.045"/>
<circle cx="92" cy="138" r="1" fill="#ffffff" opacity="0.045"/>
<circle cx="92" cy="184" r="1" fill="#ffffff" opacity="0.045"/>
<circle cx="92" cy="230" r="1" fill="#ffffff" opacity="0.045"/>
<circle cx="92" cy="276" r="1" fill="#ffffff" opacity="0.045"/>
<circle cx="92" cy="322" r="1" fill="#ffffff" opacity="0.045"/>
<circle cx="92" cy="368" r="1" fill="#ffffff" opacity="0.045"/>
<circle cx="92" cy="414" r="1" fill="#ffffff" opacity="0.045"/>
<circle cx="92" cy="460" r="1" fill="#ffffff" opacity="0.045"/>
<circle cx="92" cy="506" r="1" fill="#ffffff" opacity="0.045"/>
<circle cx="92" cy="552" r="1" fill="#ffffff" opacity="0.045"/>
<circle cx="92" cy="598" r="1" fill="#ffffff" opacity="0.045"/>
<circle cx="92" cy="644" r="1" fill="#ffffff" opacity="0.045"/>
<circle cx="92" cy="690" r="1" fill="#ffffff" opacity="0.045"/>
<circle cx="92" cy="736" r="1" fill="#ffffff" opacity="0.045"/>
<circle cx="92" cy="782" r="1" fill="#ffffff" opacity="0.045"/>
<circle cx="92" cy="828" r="1" fill="#ffffff" opacity="0.045"/>
<circle cx="92" cy="874" r="1" fill="#ffffff" opacity="0.045"/>
<circle cx="92" cy="920" r="1" fill="#ffffff" opacity="0.045"/>
<circle cx="92" cy="966" r="1" fill="#ffffff" opacity="0.045"/>
<circle cx="138" cy="0" r="1" fill="#ffffff" opacity="0.045"/>
<circle cx="138" cy="46" r="1" fill="#ffffff" opacity="0.045"/>
<circle cx="138" cy="92" r="1" fill="#ffffff" opacity="0.045"/>
<circle cx="138" cy="138" r="1" fill="#ffffff" opacity="0.045"/>
<circle cx="138" cy="184" r="1" fill="#ffffff" opacity="0.045"/>
<circle cx="138" cy="230" r="1" fill="#ffffff" opacity="0.045"/>
<circle cx="138" cy="276" r="1" fill="#ffffff" opacity="0.045"/>
<circle cx="138" cy="322" r="1" fill="#ffffff" opacity="0.045"/>
<circle cx="138" cy="368" r="1" fill="#ffffff" opacity="0.045"/>
<circle cx="138" cy="414" r="1" fill="#ffffff" opacity="0.045"/>
<circle cx="138" cy="460" r="1" fill="#ffffff" opacity="0.045"/>
<circle cx="138" cy="506" r="1" fill="#ffffff" opacity="0.045"/>
<circle cx="138" cy="552" r="1" fill="#ffffff" opacity="0.045"/>
<circle cx="138" cy="598" r="1" fill="#ffffff" opacity="0.045"/>
<circle cx="138" cy="644" r="1" fill="#ffffff" opacity="0.045"/>
<circle cx="138" cy="690" r="1" fill="#ffffff" opacity="0.045"/>
<circle cx="138" cy="736" r="1" fill="#ffffff" opacity="0.045"/>
<circle cx="138" cy="782" r="1" fill="#ffffff" opacity="0.045"/>
<circle cx="138" cy="828" r="1" fill="#ffffff" opacity="0.045"/>
<circle cx="138" cy="874" r="1" fill="#ffffff" opacity="0.045"/>
<circle cx="138" cy="920" r="1" fill="#ffffff" opacity="0.045"/>
<circle cx="138" cy="966" r="1" fill="#ffffff" opacity="0.045"/>
<circle cx="184" cy="0" r="1" fill="#ffffff" opacity="0.045"/>
<circle cx="184" cy="46" r="1" fill="#ffffff" opacity="0.045"/>
<circle cx="184" cy="92" r="1" fill="#ffffff" opacity="0.045"/>
<circle cx="184" cy="138" r="1" fill="#ffffff" opacity="0.045"/>
<circle cx="184" cy="184" r="1" fill="#ffffff" opacity="0.045"/>
<circle cx="184" cy="230" r="1" fill="#ffffff" opacity="0.045"/>
<circle cx="184" cy="276" r="1" fill="#ffffff" opacity="0.045"/>
<circle cx="184" cy="322" r="1" fill="#ffffff" opacity="0.045"/>
<circle cx="184" cy="368" r="1" fill="#ffffff" opacity="0.045"/>
<circle cx="184" cy="414" r="1" fill="#ffffff" opacity="0.045"/>
<circle cx="184" cy="460" r="1" fill="#ffffff" opacity="0.045"/>
<circle cx="184" cy="506" r="1" fill="#ffffff" opacity="0.045"/>
<circle cx="184" cy="552" r="1" fill="#ffffff" opacity="0.045"/>
<circle cx="184" cy="598" r="1" fill="#ffffff" opacity="0.045"/>
<circle cx="184" cy="644" r="1" fill="#ffffff" opacity="0.045"/>
<circle cx="184" cy="690" r="1" fill="#ffffff" opacity="0.045"/>
<circle cx="184" cy="736" r="1" fill="#ffffff" opacity="0.045"/>
<circle cx="184" cy="782" r="1" fill="#ffffff" opacity="0.045"/>
<circle cx="184" cy="828" r="1" fill="#ffffff" opacity="0.045"/>
<circle cx="184" cy="874" r="1" fill="#ffffff" opacity="0.045"/>
<circle cx="184" cy="920" r="1" fill="#ffffff" opacity="0.045"/>
<circle cx="184" cy="966" r="1" fill="#ffffff" opacity="0.045"/>
<circle cx="230" cy="0" r="1" fill="#ffffff" opacity="0.045"/>
<circle cx="230" cy="46" r="1" fill="#ffffff" opacity="0.045"/>
<circle cx="230" cy="92" r="1" fill="#ffffff" opacity="0.045"/>
<circle cx="230" cy="138" r="1" fill="#ffffff" opacity="0.045"/>
<circle cx="230" cy="184" r="1" fill="#ffffff" opacity="0.045"/>
<circle cx="230" cy="230" r="1" fill="#ffffff" opacity="0.045"/>
<circle cx="230" cy="276" r="1" fill="#ffffff" opacity="0.045"/>
<circle cx="230" cy="322" r="1" fill="#ffffff" opacity="0.045"/>
<circle cx="230" cy="368" r="1" fill="#ffffff" opacity="0.045"/>
<circle cx="230" cy="414" r="1" fill="#ffffff" opacity="0.045"/>
<circle cx="230" cy="460" r="1" fill="#ffffff" opacity="0.045"/>
<circle cx="230" cy="506" r="1" fill="#ffffff" opacity="0.045"/>
<circle cx="230" cy="552" r="1" fill="#ffffff" opacity="0.045"/>
<circle cx="230" cy="598" r="1" fill="#ffffff" opacity="0.045"/>
<circle cx="230" cy="644" r="1" fill="#ffffff" opacity="0.045"/>
<circle cx="230" cy="690" r="1" fill="#ffffff" opacity="0.045"/>
<circle cx="230" cy="736" r="1" fill="#ffffff" opacity="0.045"/>
<circle cx="230" cy="782" r="1" fill="#ffffff" opacity="0.045"/>
<circle cx="230" cy="828" r="1" fill="#ffffff" opacity="0.045"/>
<circle cx="230" cy="874" r="1" fill="#ffffff" opacity="0.045"/>
<circle cx="230" cy="920" r="1" fill="#ffffff" opacity="0.045"/>
<circle cx="230" cy="966" r="1" fill="#ffffff" opacity="0.045"/>
<circle cx="276" cy="0" r="1" fill="#ffffff" opacity="0.045"/>
<circle cx="276" cy="46" r="1" fill="#ffffff" opacity="0.045"/>
<circle cx="276" cy="92" r="1" fill="#ffffff" opacity="0.045"/>
<circle cx="276" cy="138" r="1" fill="#ffffff" opacity="0.045"/>
<circle cx="276" cy="184" r="1" fill="#ffffff" opacity="0.045"/>
<circle cx="276" cy="230" r="1" fill="#ffffff" opacity="0.045"/>
<circle cx="276" cy="276" r="1" fill="#ffffff" opacity="0.045"/>
<circle cx="276" cy="322" r="1" fill="#ffffff" opacity="0.045"/>
<circle cx="276" cy="368" r="1" fill="#ffffff" opacity="0.045"/>
<circle cx="276" cy="414" r="1" fill="#ffffff" opacity="0.045"/>
<circle cx="276" cy="460" r="1" fill="#ffffff" opacity="0.045"/>
<circle cx="276" cy="506" r="1" fill="#ffffff" opacity="0.045"/>
<circle cx="276" cy="552" r="1" fill="#ffffff" opacity="0.045"/>
<circle cx="276" cy="598" r="1" fill="#ffffff" opacity="0.045"/>
<circle cx="276" cy="644" r="1" fill="#ffffff" opacity="0.045"/>
<circle cx="276" cy="690" r="1" fill="#ffffff" opacity="0.045"/>
<circle cx="276" cy="736" r="1" fill="#ffffff" opacity="0.045"/>
<circle cx="276" cy="782" r="1" fill="#ffffff" opacity="0.045"/>
<circle cx="276" cy="828" r="1" fill="#ffffff" opacity="0.045"/>
<circle cx="276" cy="874" r="1" fill="#ffffff" opacity="0.045"/>
<circle cx="276" cy="920" r="1" fill="#ffffff" opacity="0.045"/>
<circle cx="276" cy="966" r="1" fill="#ffffff" opacity="0.045"/>
<circle cx="322" cy="0" r="1" fill="#ffffff" opacity="0.045"/>
<circle cx="322" cy="46" r="1" fill="#ffffff" opacity="0.045"/>
<circle cx="322" cy="92" r="1" fill="#ffffff" opacity="0.045"/>
<circle cx="322" cy="138" r="1" fill="#ffffff" opacity="0.045"/>
<circle cx="322" cy="184" r="1" fill="#ffffff" opacity="0.045"/>
<circle cx="322" cy="230" r="1" fill="#ffffff" opacity="0.045"/>
<circle cx="322" cy="276" r="1" fill="#ffffff" opacity="0.045"/>
<circle cx="322" cy="322" r="1" fill="#ffffff" opacity="0.045"/>
<circle cx="322" cy="368" r="1" fill="#ffffff" opacity="0.045"/>
<circle cx="322" cy="414" r="1" fill="#ffffff" opacity="0.045"/>
<circle cx="322" cy="460" r="1" fill="#ffffff" opacity="0.045"/>
<circle cx="322" cy="506" r="1" fill="#ffffff" opacity="0.045"/>
<circle cx="322" cy="552" r="1" fill="#ffffff" opacity="0.045"/>
<circle cx="322" cy="598" r="1" fill="#ffffff" opacity="0.045"/>
<circle cx="322" cy="644" r="1" fill="#ffffff" opacity="0.045"/>
<circle cx="322" cy="690" r="1" fill="#ffffff" opacity="0.045"/>
<circle cx="322" cy="736" r="1" fill="#ffffff" opacity="0.045"/>
<circle cx="322" cy="782" r="1" fill="#ffffff" opacity="0.045"/>
<circle cx="322" cy="828" r="1" fill="#ffffff" opacity="0.045"/>
<circle cx="322" cy="874" r="1" fill="#ffffff" opacity="0.045"/>
<circle cx="322" cy="920" r="1" fill="#ffffff" opacity="0.045"/>
<circle cx="322" cy="966" r="1" fill="#ffffff" opacity="0.045"/>
<circle cx="368" cy="0" r="1" fill="#ffffff" opacity="0.045"/>
<circle cx="368" cy="46" r="1" fill="#ffffff" opacity="0.045"/>
<circle cx="368" cy="92" r="1" fill="#ffffff" opacity="0.045"/>
<circle cx="368" cy="138" r="1" fill="#ffffff" opacity="0.045"/>
<circle cx="368" cy="184" r="1" fill="#ffffff" opacity="0.045"/>
<circle cx="368" cy="230" r="1" fill="#ffffff" opacity="0.045"/>
<circle cx="368" cy="276" r="1" fill="#ffffff" opacity="0.045"/>
<circle cx="368" cy="322" r="1" fill="#ffffff" opacity="0.045"/>
<circle cx="368" cy="368" r="1" fill="#ffffff" opacity="0.045"/>
<circle cx="368" cy="414" r="1" fill="#ffffff" opacity="0.045"/>
<circle cx="368" cy="460" r="1" fill="#ffffff" opacity="0.045"/>
<circle cx="368" cy="506" r="1" fill="#ffffff" opacity="0.045"/>
<circle cx="368" cy="552" r="1" fill="#ffffff" opacity="0.045"/>
<circle cx="368" cy="598" r="1" fill="#ffffff" opacity="0.045"/>
<circle cx="368" cy="644" r="1" fill="#ffffff" opacity="0.045"/>
<circle cx="368" cy="690" r="1" fill="#ffffff" opacity="0.045"/>
<circle cx="368" cy="736" r="1" fill="#ffffff" opacity="0.045"/>
<circle cx="368" cy="782" r="1" fill="#ffffff" opacity="0.045"/>
<circle cx="368" cy="828" r="1" fill="#ffffff" opacity="0.045"/>
<circle cx="368" cy="874" r="1" fill="#ffffff" opacity="0.045"/>
<circle cx="368" cy="920" r="1" fill="#ffffff" opacity="0.045"/>
<circle cx="368" cy="966" r="1" fill="#ffffff" opacity="0.045"/>
<circle cx="414" cy="0" r="1" fill="#ffffff" opacity="0.045"/>
<circle cx="414" cy="46" r="1" fill="#ffffff" opacity="0.045"/>
<circle cx="414" cy="92" r="1" fill="#ffffff" opacity="0.045"/>
<circle cx="414" cy="138" r="1" fill="#ffffff" opacity="0.045"/>
<circle cx="414" cy="184" r="1" fill="#ffffff" opacity="0.045"/>
<circle cx="414" cy="230" r="1" fill="#ffffff" opacity="0.045"/>
<circle cx="414" cy="276" r="1" fill="#ffffff" opacity="0.045"/>
<circle cx="414" cy="322" r="1" fill="#ffffff" opacity="0.045"/>
<circle cx="414" cy="368" r="1" fill="#ffffff" opacity="0.045"/>
<circle cx="414" cy="414" r="1" fill="#ffffff" opacity="0.045"/>
<circle cx="414" cy="460" r="1" fill="#ffffff" opacity="0.045"/>
<circle cx="414" cy="506" r="1" fill="#ffffff" opacity="0.045"/>
<circle cx="414" cy="552" r="1" fill="#ffffff" opacity="0.045"/>
<circle cx="414" cy="598" r="1" fill="#ffffff" opacity="0.045"/>
<circle cx="414" cy="644" r="1" fill="#ffffff" opacity="0.045"/>
<circle cx="414" cy="690" r="1" fill="#ffffff" opacity="0.045"/>
<circle cx="414" cy="736" r="1" fill="#ffffff" opacity="0.045"/>
<circle cx="414" cy="782" r="1" fill="#ffffff" opacity="0.045"/>
<circle cx="414" cy="828" r="1" fill="#ffffff" opacity="0.045"/>
<circle cx="414" cy="874" r="1" fill="#ffffff" opacity="0.045"/>
<circle cx="414" cy="920" r="1" fill="#ffffff" opacity="0.045"/>
<circle cx="414" cy="966" r="1" fill="#ffffff" opacity="0.045"/>
<circle cx="460" cy="0" r="1" fill="#ffffff" opacity="0.045"/>
<circle cx="460" cy="46" r="1" fill="#ffffff" opacity="0.045"/>
<circle cx="460" cy="92" r="1" fill="#ffffff" opacity="0.045"/>
<circle cx="460" cy="138" r="1" fill="#ffffff" opacity="0.045"/>
<circle cx="460" cy="184" r="1" fill="#ffffff" opacity="0.045"/>
<circle cx="460" cy="230" r="1" fill="#ffffff" opacity="0.045"/>
<circle cx="460" cy="276" r="1" fill="#ffffff" opacity="0.045"/>
<circle cx="460" cy="322" r="1" fill="#ffffff" opacity="0.045"/>
<circle cx="460" cy="368" r="1" fill="#ffffff" opacity="0.045"/>
<circle cx="460" cy="414" r="1" fill="#ffffff" opacity="0.045"/>
<circle cx="460" cy="460" r="1" fill="#ffffff" opacity="0.045"/>
<circle cx="460" cy="506" r="1" fill="#ffffff" opacity="0.045"/>
<circle cx="460" cy="552" r="1" fill="#ffffff" opacity="0.045"/>
<circle cx="460" cy="598" r="1" fill="#ffffff" opacity="0.045"/>
<circle cx="460" cy="644" r="1" fill="#ffffff" opacity="0.045"/>
<circle cx="460" cy="690" r="1" fill="#ffffff" opacity="0.045"/>
<circle cx="460" cy="736" r="1" fill="#ffffff" opacity="0.045"/>
<circle cx="460" cy="782" r="1" fill="#ffffff" opacity="0.045"/>
<circle cx="460" cy="828" r="1" fill="#ffffff" opacity="0.045"/>
<circle cx="460" cy="874" r="1" fill="#ffffff" opacity="0.045"/>
<circle cx="460" cy="920" r="1" fill="#ffffff" opacity="0.045"/>
<circle cx="460" cy="966" r="1" fill="#ffffff" opacity="0.045"/>
<circle cx="506" cy="0" r="1" fill="#ffffff" opacity="0.045"/>
<circle cx="506" cy="46" r="1" fill="#ffffff" opacity="0.045"/>
<circle cx="506" cy="92" r="1" fill="#ffffff" opacity="0.045"/>
<circle cx="506" cy="138" r="1" fill="#ffffff" opacity="0.045"/>
<circle cx="506" cy="184" r="1" fill="#ffffff" opacity="0.045"/>
<circle cx="506" cy="230" r="1" fill="#ffffff" opacity="0.045"/>
<circle cx="506" cy="276" r="1" fill="#ffffff" opacity="0.045"/>
<circle cx="506" cy="322" r="1" fill="#ffffff" opacity="0.045"/>
<circle cx="506" cy="368" r="1" fill="#ffffff" opacity="0.045"/>
<circle cx="506" cy="414" r="1" fill="#ffffff" opacity="0.045"/>
<circle cx="506" cy="460" r="1" fill="#ffffff" opacity="0.045"/>
<circle cx="506" cy="506" r="1" fill="#ffffff" opacity="0.045"/>
<circle cx="506" cy="552" r="1" fill="#ffffff" opacity="0.045"/>
<circle cx="506" cy="598" r="1" fill="#ffffff" opacity="0.045"/>
<circle cx="506" cy="644" r="1" fill="#ffffff" opacity="0.045"/>
<circle cx="506" cy="690" r="1" fill="#ffffff" opacity="0.045"/>
<circle cx="506" cy="736" r="1" fill="#ffffff" opacity="0.045"/>
<circle cx="506" cy="782" r="1" fill="#ffffff" opacity="0.045"/>
<circle cx="506" cy="828" r="1" fill="#ffffff" opacity="0.045"/>
<circle cx="506" cy="874" r="1" fill="#ffffff" opacity="0.045"/>
<circle cx="506" cy="920" r="1" fill="#ffffff" opacity="0.045"/>
<circle cx="506" cy="966" r="1" fill="#ffffff" opacity="0.045"/>
<circle cx="552" cy="0" r="1" fill="#ffffff" opacity="0.045"/>
<circle cx="552" cy="46" r="1" fill="#ffffff" opacity="0.045"/>
<circle cx="552" cy="92" r="1" fill="#ffffff" opacity="0.045"/>
<circle cx="552" cy="138" r="1" fill="#ffffff" opacity="0.045"/>
<circle cx="552" cy="184" r="1" fill="#ffffff" opacity="0.045"/>
<circle cx="552" cy="230" r="1" fill="#ffffff" opacity="0.045"/>
<circle cx="552" cy="276" r="1" fill="#ffffff" opacity="0.045"/>
<circle cx="552" cy="322" r="1" fill="#ffffff" opacity="0.045"/>
<circle cx="552" cy="368" r="1" fill="#ffffff" opacity="0.045"/>
<circle cx="552" cy="414" r="1" fill="#ffffff" opacity="0.045"/>
<circle cx="552" cy="460" r="1" fill="#ffffff" opacity="0.045"/>
<circle cx="552" cy="506" r="1" fill="#ffffff" opacity="0.045"/>
<circle cx="552" cy="552" r="1" fill="#ffffff" opacity="0.045"/>
<circle cx="552" cy="598" r="1" fill="#ffffff" opacity="0.045"/>
<circle cx="552" cy="644" r="1" fill="#ffffff" opacity="0.045"/>
<circle cx="552" cy="690" r="1" fill="#ffffff" opacity="0.045"/>
<circle cx="552" cy="736" r="1" fill="#ffffff" opacity="0.045"/>
<circle cx="552" cy="782" r="1" fill="#ffffff" opacity="0.045"/>
<circle cx="552" cy="828" r="1" fill="#ffffff" opacity="0.045"/>
<circle cx="552" cy="874" r="1" fill="#ffffff" opacity="0.045"/>
<circle cx="552" cy="920" r="1" fill="#ffffff" opacity="0.045"/>
<circle cx="552" cy="966" r="1" fill="#ffffff" opacity="0.045"/>
<circle cx="598" cy="0" r="1" fill="#ffffff" opacity="0.045"/>
<circle cx="598" cy="46" r="1" fill="#ffffff" opacity="0.045"/>
<circle cx="598" cy="92" r="1" fill="#ffffff" opacity="0.045"/>
<circle cx="598" cy="138" r="1" fill="#ffffff" opacity="0.045"/>
<circle cx="598" cy="184" r="1" fill="#ffffff" opacity="0.045"/>
<circle cx="598" cy="230" r="1" fill="#ffffff" opacity="0.045"/>
<circle cx="598" cy="276" r="1" fill="#ffffff" opacity="0.045"/>
<circle cx="598" cy="322" r="1" fill="#ffffff" opacity="0.045"/>
<circle cx="598" cy="368" r="1" fill="#ffffff" opacity="0.045"/>
<circle cx="598" cy="414" r="1" fill="#ffffff" opacity="0.045"/>
<circle cx="598" cy="460" r="1" fill="#ffffff" opacity="0.045"/>
<circle cx="598" cy="506" r="1" fill="#ffffff" opacity="0.045"/>
<circle cx="598" cy="552" r="1" fill="#ffffff" opacity="0.045"/>
<circle cx="598" cy="598" r="1" fill="#ffffff" opacity="0.045"/>
<circle cx="598" cy="644" r="1" fill="#ffffff" opacity="0.045"/>
<circle cx="598" cy="690" r="1" fill="#ffffff" opacity="0.045"/>
<circle cx="598" cy="736" r="1" fill="#ffffff" opacity="0.045"/>
<circle cx="598" cy="782" r="1" fill="#ffffff" opacity="0.045"/>
<circle cx="598" cy="828" r="1" fill="#ffffff" opacity="0.045"/>
<circle cx="598" cy="874" r="1" fill="#ffffff" opacity="0.045"/>
<circle cx="598" cy="920" r="1" fill="#ffffff" opacity="0.045"/>
<circle cx="598" cy="966" r="1" fill="#ffffff" opacity="0.045"/>
<circle cx="644" cy="0" r="1" fill="#ffffff" opacity="0.045"/>
<circle cx="644" cy="46" r="1" fill="#ffffff" opacity="0.045"/>
<circle cx="644" cy="92" r="1" fill="#ffffff" opacity="0.045"/>
<circle cx="644" cy="138" r="1" fill="#ffffff" opacity="0.045"/>
<circle cx="644" cy="184" r="1" fill="#ffffff" opacity="0.045"/>
<circle cx="644" cy="230" r="1" fill="#ffffff" opacity="0.045"/>
<circle cx="644" cy="276" r="1" fill="#ffffff" opacity="0.045"/>
<circle cx="644" cy="322" r="1" fill="#ffffff" opacity="0.045"/>
<circle cx="644" cy="368" r="1" fill="#ffffff" opacity="0.045"/>
<circle cx="644" cy="414" r="1" fill="#ffffff" opacity="0.045"/>
<circle cx="644" cy="460" r="1" fill="#ffffff" opacity="0.045"/>
<circle cx="644" cy="506" r="1" fill="#ffffff" opacity="0.045"/>
<circle cx="644" cy="552" r="1" fill="#ffffff" opacity="0.045"/>
<circle cx="644" cy="598" r="1" fill="#ffffff" opacity="0.045"/>
<circle cx="644" cy="644" r="1" fill="#ffffff" opacity="0.045"/>
<circle cx="644" cy="690" r="1" fill="#ffffff" opacity="0.045"/>
<circle cx="644" cy="736" r="1" fill="#ffffff" opacity="0.045"/>
<circle cx="644" cy="782" r="1" fill="#ffffff" opacity="0.045"/>
<circle cx="644" cy="828" r="1" fill="#ffffff" opacity="0.045"/>
<circle cx="644" cy="874" r="1" fill="#ffffff" opacity="0.045"/>
<circle cx="644" cy="920" r="1" fill="#ffffff" opacity="0.045"/>
<circle cx="644" cy="966" r="1" fill="#ffffff" opacity="0.045"/>
<circle cx="690" cy="0" r="1" fill="#ffffff" opacity="0.045"/>
<circle cx="690" cy="46" r="1" fill="#ffffff" opacity="0.045"/>
<circle cx="690" cy="92" r="1" fill="#ffffff" opacity="0.045"/>
<circle cx="690" cy="138" r="1" fill="#ffffff" opacity="0.045"/>
<circle cx="690" cy="184" r="1" fill="#ffffff" opacity="0.045"/>
<circle cx="690" cy="230" r="1" fill="#ffffff" opacity="0.045"/>
<circle cx="690" cy="276" r="1" fill="#ffffff" opacity="0.045"/>
<circle cx="690" cy="322" r="1" fill="#ffffff" opacity="0.045"/>
<circle cx="690" cy="368" r="1" fill="#ffffff" opacity="0.045"/>
<circle cx="690" cy="414" r="1" fill="#ffffff" opacity="0.045"/>
<circle cx="690" cy="460" r="1" fill="#ffffff" opacity="0.045"/>
<circle cx="690" cy="506" r="1" fill="#ffffff" opacity="0.045"/>
<circle cx="690" cy="552" r="1" fill="#ffffff" opacity="0.045"/>
<circle cx="690" cy="598" r="1" fill="#ffffff" opacity="0.045"/>
<circle cx="690" cy="644" r="1" fill="#ffffff" opacity="0.045"/>
<circle cx="690" cy="690" r="1" fill="#ffffff" opacity="0.045"/>
<circle cx="690" cy="736" r="1" fill="#ffffff" opacity="0.045"/>
<circle cx="690" cy="782" r="1" fill="#ffffff" opacity="0.045"/>
<circle cx="690" cy="828" r="1" fill="#ffffff" opacity="0.045"/>
<circle cx="690" cy="874" r="1" fill="#ffffff" opacity="0.045"/>
<circle cx="690" cy="920" r="1" fill="#ffffff" opacity="0.045"/>
<circle cx="690" cy="966" r="1" fill="#ffffff" opacity="0.045"/>
<circle cx="736" cy="0" r="1" fill="#ffffff" opacity="0.045"/>
<circle cx="736" cy="46" r="1" fill="#ffffff" opacity="0.045"/>
<circle cx="736" cy="92" r="1" fill="#ffffff" opacity="0.045"/>
<circle cx="736" cy="138" r="1" fill="#ffffff" opacity="0.045"/>
<circle cx="736" cy="184" r="1" fill="#ffffff" opacity="0.045"/>
<circle cx="736" cy="230" r="1" fill="#ffffff" opacity="0.045"/>
<circle cx="736" cy="276" r="1" fill="#ffffff" opacity="0.045"/>
<circle cx="736" cy="322" r="1" fill="#ffffff" opacity="0.045"/>
<circle cx="736" cy="368" r="1" fill="#ffffff" opacity="0.045"/>
<circle cx="736" cy="414" r="1" fill="#ffffff" opacity="0.045"/>
<circle cx="736" cy="460" r="1" fill="#ffffff" opacity="0.045"/>
<circle cx="736" cy="506" r="1" fill="#ffffff" opacity="0.045"/>
<circle cx="736" cy="552" r="1" fill="#ffffff" opacity="0.045"/>
<circle cx="736" cy="598" r="1" fill="#ffffff" opacity="0.045"/>
<circle cx="736" cy="644" r="1" fill="#ffffff" opacity="0.045"/>
<circle cx="736" cy="690" r="1" fill="#ffffff" opacity="0.045"/>
<circle cx="736" cy="736" r="1" fill="#ffffff" opacity="0.045"/>
<circle cx="736" cy="782" r="1" fill="#ffffff" opacity="0.045"/>
<circle cx="736" cy="828" r="1" fill="#ffffff" opacity="0.045"/>
<circle cx="736" cy="874" r="1" fill="#ffffff" opacity="0.045"/>
<circle cx="736" cy="920" r="1" fill="#ffffff" opacity="0.045"/>
<circle cx="736" cy="966" r="1" fill="#ffffff" opacity="0.045"/>
<circle cx="782" cy="0" r="1" fill="#ffffff" opacity="0.045"/>
<circle cx="782" cy="46" r="1" fill="#ffffff" opacity="0.045"/>
<circle cx="782" cy="92" r="1" fill="#ffffff" opacity="0.045"/>
<circle cx="782" cy="138" r="1" fill="#ffffff" opacity="0.045"/>
<circle cx="782" cy="184" r="1" fill="#ffffff" opacity="0.045"/>
<circle cx="782" cy="230" r="1" fill="#ffffff" opacity="0.045"/>
<circle cx="782" cy="276" r="1" fill="#ffffff" opacity="0.045"/>
<circle cx="782" cy="322" r="1" fill="#ffffff" opacity="0.045"/>
<circle cx="782" cy="368" r="1" fill="#ffffff" opacity="0.045"/>
<circle cx="782" cy="414" r="1" fill="#ffffff" opacity="0.045"/>
<circle cx="782" cy="460" r="1" fill="#ffffff" opacity="0.045"/>
<circle cx="782" cy="506" r="1" fill="#ffffff" opacity="0.045"/>
<circle cx="782" cy="552" r="1" fill="#ffffff" opacity="0.045"/>
<circle cx="782" cy="598" r="1" fill="#ffffff" opacity="0.045"/>
<circle cx="782" cy="644" r="1" fill="#ffffff" opacity="0.045"/>
<circle cx="782" cy="690" r="1" fill="#ffffff" opacity="0.045"/>
<circle cx="782" cy="736" r="1" fill="#ffffff" opacity="0.045"/>
<circle cx="782" cy="782" r="1" fill="#ffffff" opacity="0.045"/>
<circle cx="782" cy="828" r="1" fill="#ffffff" opacity="0.045"/>
<circle cx="782" cy="874" r="1" fill="#ffffff" opacity="0.045"/>
<circle cx="782" cy="920" r="1" fill="#ffffff" opacity="0.045"/>
<circle cx="782" cy="966" r="1" fill="#ffffff" opacity="0.045"/>
<circle cx="828" cy="0" r="1" fill="#ffffff" opacity="0.045"/>
<circle cx="828" cy="46" r="1" fill="#ffffff" opacity="0.045"/>
<circle cx="828" cy="92" r="1" fill="#ffffff" opacity="0.045"/>
<circle cx="828" cy="138" r="1" fill="#ffffff" opacity="0.045"/>
<circle cx="828" cy="184" r="1" fill="#ffffff" opacity="0.045"/>
<circle cx="828" cy="230" r="1" fill="#ffffff" opacity="0.045"/>
<circle cx="828" cy="276" r="1" fill="#ffffff" opacity="0.045"/>
<circle cx="828" cy="322" r="1" fill="#ffffff" opacity="0.045"/>
<circle cx="828" cy="368" r="1" fill="#ffffff" opacity="0.045"/>
<circle cx="828" cy="414" r="1" fill="#ffffff" opacity="0.045"/>
<circle cx="828" cy="460" r="1" fill="#ffffff" opacity="0.045"/>
<circle cx="828" cy="506" r="1" fill="#ffffff" opacity="0.045"/>
<circle cx="828" cy="552" r="1" fill="#ffffff" opacity="0.045"/>
<circle cx="828" cy="598" r="1" fill="#ffffff" opacity="0.045"/>
<circle cx="828" cy="644" r="1" fill="#ffffff" opacity="0.045"/>
<circle cx="828" cy="690" r="1" fill="#ffffff" opacity="0.045"/>
<circle cx="828" cy="736" r="1" fill="#ffffff" opacity="0.045"/>
<circle cx="828" cy="782" r="1" fill="#ffffff" opacity="0.045"/>
<circle cx="828" cy="828" r="1" fill="#ffffff" opacity="0.045"/>
<circle cx="828" cy="874" r="1" fill="#ffffff" opacity="0.045"/>
<circle cx="828" cy="920" r="1" fill="#ffffff" opacity="0.045"/>
<circle cx="828" cy="966" r="1" fill="#ffffff" opacity="0.045"/>
<circle cx="874" cy="0" r="1" fill="#ffffff" opacity="0.045"/>
<circle cx="874" cy="46" r="1" fill="#ffffff" opacity="0.045"/>
<circle cx="874" cy="92" r="1" fill="#ffffff" opacity="0.045"/>
<circle cx="874" cy="138" r="1" fill="#ffffff" opacity="0.045"/>
<circle cx="874" cy="184" r="1" fill="#ffffff" opacity="0.045"/>
<circle cx="874" cy="230" r="1" fill="#ffffff" opacity="0.045"/>
<circle cx="874" cy="276" r="1" fill="#ffffff" opacity="0.045"/>
<circle cx="874" cy="322" r="1" fill="#ffffff" opacity="0.045"/>
<circle cx="874" cy="368" r="1" fill="#ffffff" opacity="0.045"/>
<circle cx="874" cy="414" r="1" fill="#ffffff" opacity="0.045"/>
<circle cx="874" cy="460" r="1" fill="#ffffff" opacity="0.045"/>
<circle cx="874" cy="506" r="1" fill="#ffffff" opacity="0.045"/>
<circle cx="874" cy="552" r="1" fill="#ffffff" opacity="0.045"/>
<circle cx="874" cy="598" r="1" fill="#ffffff" opacity="0.045"/>
<circle cx="874" cy="644" r="1" fill="#ffffff" opacity="0.045"/>
<circle cx="874" cy="690" r="1" fill="#ffffff" opacity="0.045"/>
<circle cx="874" cy="736" r="1" fill="#ffffff" opacity="0.045"/>
<circle cx="874" cy="782" r="1" fill="#ffffff" opacity="0.045"/>
<circle cx="874" cy="828" r="1" fill="#ffffff" opacity="0.045"/>
<circle cx="874" cy="874" r="1" fill="#ffffff" opacity="0.045"/>
<circle cx="874" cy="920" r="1" fill="#ffffff" opacity="0.045"/>
<circle cx="874" cy="966" r="1" fill="#ffffff" opacity="0.045"/>
<circle cx="920" cy="0" r="1" fill="#ffffff" opacity="0.045"/>
<circle cx="920" cy="46" r="1" fill="#ffffff" opacity="0.045"/>
<circle cx="920" cy="92" r="1" fill="#ffffff" opacity="0.045"/>
<circle cx="920" cy="138" r="1" fill="#ffffff" opacity="0.045"/>
<circle cx="920" cy="184" r="1" fill="#ffffff" opacity="0.045"/>
<circle cx="920" cy="230" r="1" fill="#ffffff" opacity="0.045"/>
<circle cx="920" cy="276" r="1" fill="#ffffff" opacity="0.045"/>
<circle cx="920" cy="322" r="1" fill="#ffffff" opacity="0.045"/>
<circle cx="920" cy="368" r="1" fill="#ffffff" opacity="0.045"/>
<circle cx="920" cy="414" r="1" fill="#ffffff" opacity="0.045"/>
<circle cx="920" cy="460" r="1" fill="#ffffff" opacity="0.045"/>
<circle cx="920" cy="506" r="1" fill="#ffffff" opacity="0.045"/>
<circle cx="920" cy="552" r="1" fill="#ffffff" opacity="0.045"/>
<circle cx="920" cy="598" r="1" fill="#ffffff" opacity="0.045"/>
<circle cx="920" cy="644" r="1" fill="#ffffff" opacity="0.045"/>
<circle cx="920" cy="690" r="1" fill="#ffffff" opacity="0.045"/>
<circle cx="920" cy="736" r="1" fill="#ffffff" opacity="0.045"/>
<circle cx="920" cy="782" r="1" fill="#ffffff" opacity="0.045"/>
<circle cx="920" cy="828" r="1" fill="#ffffff" opacity="0.045"/>
<circle cx="920" cy="874" r="1" fill="#ffffff" opacity="0.045"/>
<circle cx="920" cy="920" r="1" fill="#ffffff" opacity="0.045"/>
<circle cx="920" cy="966" r="1" fill="#ffffff" opacity="0.045"/>
<circle cx="966" cy="0" r="1" fill="#ffffff" opacity="0.045"/>
<circle cx="966" cy="46" r="1" fill="#ffffff" opacity="0.045"/>
<circle cx="966" cy="92" r="1" fill="#ffffff" opacity="0.045"/>
<circle cx="966" cy="138" r="1" fill="#ffffff" opacity="0.045"/>
<circle cx="966" cy="184" r="1" fill="#ffffff" opacity="0.045"/>
<circle cx="966" cy="230" r="1" fill="#ffffff" opacity="0.045"/>
<circle cx="966" cy="276" r="1" fill="#ffffff" opacity="0.045"/>
<circle cx="966" cy="322" r="1" fill="#ffffff" opacity="0.045"/>
<circle cx="966" cy="368" r="1" fill="#ffffff" opacity="0.045"/>
<circle cx="966" cy="414" r="1" fill="#ffffff" opacity="0.045"/>
<circle cx="966" cy="460" r="1" fill="#ffffff" opacity="0.045"/>
<circle cx="966" cy="506" r="1" fill="#ffffff" opacity="0.045"/>
<circle cx="966" cy="552" r="1" fill="#ffffff" opacity="0.045"/>
<circle cx="966" cy="598" r="1" fill="#ffffff" opacity="0.045"/>
<circle cx="966" cy="644" r="1" fill="#ffffff" opacity="0.045"/>
<circle cx="966" cy="690" r="1" fill="#ffffff" opacity="0.045"/>
<circle cx="966" cy="736" r="1" fill="#ffffff" opacity="0.045"/>
<circle cx="966" cy="782" r="1" fill="#ffffff" opacity="0.045"/>
<circle cx="966" cy="828" r="1" fill="#ffffff" opacity="0.045"/>
<circle cx="966" cy="874" r="1" fill="#ffffff" opacity="0.045"/>
<circle cx="966" cy="920" r="1" fill="#ffffff" opacity="0.045"/>
<circle cx="966" cy="966" r="1" fill="#ffffff" opacity="0.045"/>
<circle cx="1012" cy="0" r="1" fill="#ffffff" opacity="0.045"/>
<circle cx="1012" cy="46" r="1" fill="#ffffff" opacity="0.045"/>
<circle cx="1012" cy="92" r="1" fill="#ffffff" opacity="0.045"/>
<circle cx="1012" cy="138" r="1" fill="#ffffff" opacity="0.045"/>
<circle cx="1012" cy="184" r="1" fill="#ffffff" opacity="0.045"/>
<circle cx="1012" cy="230" r="1" fill="#ffffff" opacity="0.045"/>
<circle cx="1012" cy="276" r="1" fill="#ffffff" opacity="0.045"/>
<circle cx="1012" cy="322" r="1" fill="#ffffff" opacity="0.045"/>
<circle cx="1012" cy="368" r="1" fill="#ffffff" opacity="0.045"/>
<circle cx="1012" cy="414" r="1" fill="#ffffff" opacity="0.045"/>
<circle cx="1012" cy="460" r="1" fill="#ffffff" opacity="0.045"/>
<circle cx="1012" cy="506" r="1" fill="#ffffff" opacity="0.045"/>
<circle cx="1012" cy="552" r="1" fill="#ffffff" opacity="0.045"/>
<circle cx="1012" cy="598" r="1" fill="#ffffff" opacity="0.045"/>
<circle cx="1012" cy="644" r="1" fill="#ffffff" opacity="0.045"/>
<circle cx="1012" cy="690" r="1" fill="#ffffff" opacity="0.045"/>
<circle cx="1012" cy="736" r="1" fill="#ffffff" opacity="0.045"/>
<circle cx="1012" cy="782" r="1" fill="#ffffff" opacity="0.045"/>
<circle cx="1012" cy="828" r="1" fill="#ffffff" opacity="0.045"/>
<circle cx="1012" cy="874" r="1" fill="#ffffff" opacity="0.045"/>
<circle cx="1012" cy="920" r="1" fill="#ffffff" opacity="0.045"/>
<circle cx="1012" cy="966" r="1" fill="#ffffff" opacity="0.045"/>
<circle cx="1058" cy="0" r="1" fill="#ffffff" opacity="0.045"/>
<circle cx="1058" cy="46" r="1" fill="#ffffff" opacity="0.045"/>
<circle cx="1058" cy="92" r="1" fill="#ffffff" opacity="0.045"/>
<circle cx="1058" cy="138" r="1" fill="#ffffff" opacity="0.045"/>
<circle cx="1058" cy="184" r="1" fill="#ffffff" opacity="0.045"/>
<circle cx="1058" cy="230" r="1" fill="#ffffff" opacity="0.045"/>
<circle cx="1058" cy="276" r="1" fill="#ffffff" opacity="0.045"/>
<circle cx="1058" cy="322" r="1" fill="#ffffff" opacity="0.045"/>
<circle cx="1058" cy="368" r="1" fill="#ffffff" opacity="0.045"/>
<circle cx="1058" cy="414" r="1" fill="#ffffff" opacity="0.045"/>
<circle cx="1058" cy="460" r="1" fill="#ffffff" opacity="0.045"/>
<circle cx="1058" cy="506" r="1" fill="#ffffff" opacity="0.045"/>
<circle cx="1058" cy="552" r="1" fill="#ffffff" opacity="0.045"/>
<circle cx="1058" cy="598" r="1" fill="#ffffff" opacity="0.045"/>
<circle cx="1058" cy="644" r="1" fill="#ffffff" opacity="0.045"/>
<circle cx="1058" cy="690" r="1" fill="#ffffff" opacity="0.045"/>
<circle cx="1058" cy="736" r="1" fill="#ffffff" opacity="0.045"/>
<circle cx="1058" cy="782" r="1" fill="#ffffff" opacity="0.045"/>
<circle cx="1058" cy="828" r="1" fill="#ffffff" opacity="0.045"/>
<circle cx="1058" cy="874" r="1" fill="#ffffff" opacity="0.045"/>
<circle cx="1058" cy="920" r="1" fill="#ffffff" opacity="0.045"/>
<circle cx="1058" cy="966" r="1" fill="#ffffff" opacity="0.045"/>
<circle cx="1104" cy="0" r="1" fill="#ffffff" opacity="0.045"/>
<circle cx="1104" cy="46" r="1" fill="#ffffff" opacity="0.045"/>
<circle cx="1104" cy="92" r="1" fill="#ffffff" opacity="0.045"/>
<circle cx="1104" cy="138" r="1" fill="#ffffff" opacity="0.045"/>
<circle cx="1104" cy="184" r="1" fill="#ffffff" opacity="0.045"/>
<circle cx="1104" cy="230" r="1" fill="#ffffff" opacity="0.045"/>
<circle cx="1104" cy="276" r="1" fill="#ffffff" opacity="0.045"/>
<circle cx="1104" cy="322" r="1" fill="#ffffff" opacity="0.045"/>
<circle cx="1104" cy="368" r="1" fill="#ffffff" opacity="0.045"/>
<circle cx="1104" cy="414" r="1" fill="#ffffff" opacity="0.045"/>
<circle cx="1104" cy="460" r="1" fill="#ffffff" opacity="0.045"/>
<circle cx="1104" cy="506" r="1" fill="#ffffff" opacity="0.045"/>
<circle cx="1104" cy="552" r="1" fill="#ffffff" opacity="0.045"/>
<circle cx="1104" cy="598" r="1" fill="#ffffff" opacity="0.045"/>
<circle cx="1104" cy="644" r="1" fill="#ffffff" opacity="0.045"/>
<circle cx="1104" cy="690" r="1" fill="#ffffff" opacity="0.045"/>
<circle cx="1104" cy="736" r="1" fill="#ffffff" opacity="0.045"/>
<circle cx="1104" cy="782" r="1" fill="#ffffff" opacity="0.045"/>
<circle cx="1104" cy="828" r="1" fill="#ffffff" opacity="0.045"/>
<circle cx="1104" cy="874" r="1" fill="#ffffff" opacity="0.045"/>
<circle cx="1104" cy="920" r="1" fill="#ffffff" opacity="0.045"/>
<circle cx="1104" cy="966" r="1" fill="#ffffff" opacity="0.045"/>
<circle cx="1150" cy="0" r="1" fill="#ffffff" opacity="0.045"/>
<circle cx="1150" cy="46" r="1" fill="#ffffff" opacity="0.045"/>
<circle cx="1150" cy="92" r="1" fill="#ffffff" opacity="0.045"/>
<circle cx="1150" cy="138" r="1" fill="#ffffff" opacity="0.045"/>
<circle cx="1150" cy="184" r="1" fill="#ffffff" opacity="0.045"/>
<circle cx="1150" cy="230" r="1" fill="#ffffff" opacity="0.045"/>
<circle cx="1150" cy="276" r="1" fill="#ffffff" opacity="0.045"/>
<circle cx="1150" cy="322" r="1" fill="#ffffff" opacity="0.045"/>
<circle cx="1150" cy="368" r="1" fill="#ffffff" opacity="0.045"/>
<circle cx="1150" cy="414" r="1" fill="#ffffff" opacity="0.045"/>
<circle cx="1150" cy="460" r="1" fill="#ffffff" opacity="0.045"/>
<circle cx="1150" cy="506" r="1" fill="#ffffff" opacity="0.045"/>
<circle cx="1150" cy="552" r="1" fill="#ffffff" opacity="0.045"/>
<circle cx="1150" cy="598" r="1" fill="#ffffff" opacity="0.045"/>
<circle cx="1150" cy="644" r="1" fill="#ffffff" opacity="0.045"/>
<circle cx="1150" cy="690" r="1" fill="#ffffff" opacity="0.045"/>
<circle cx="1150" cy="736" r="1" fill="#ffffff" opacity="0.045"/>
<circle cx="1150" cy="782" r="1" fill="#ffffff" opacity="0.045"/>
<circle cx="1150" cy="828" r="1" fill="#ffffff" opacity="0.045"/>
<circle cx="1150" cy="874" r="1" fill="#ffffff" opacity="0.045"/>
<circle cx="1150" cy="920" r="1" fill="#ffffff" opacity="0.045"/>
<circle cx="1150" cy="966" r="1" fill="#ffffff" opacity="0.045"/>
<circle cx="1196" cy="0" r="1" fill="#ffffff" opacity="0.045"/>
<circle cx="1196" cy="46" r="1" fill="#ffffff" opacity="0.045"/>
<circle cx="1196" cy="92" r="1" fill="#ffffff" opacity="0.045"/>
<circle cx="1196" cy="138" r="1" fill="#ffffff" opacity="0.045"/>
<circle cx="1196" cy="184" r="1" fill="#ffffff" opacity="0.045"/>
<circle cx="1196" cy="230" r="1" fill="#ffffff" opacity="0.045"/>
<circle cx="1196" cy="276" r="1" fill="#ffffff" opacity="0.045"/>
<circle cx="1196" cy="322" r="1" fill="#ffffff" opacity="0.045"/>
<circle cx="1196" cy="368" r="1" fill="#ffffff" opacity="0.045"/>
<circle cx="1196" cy="414" r="1" fill="#ffffff" opacity="0.045"/>
<circle cx="1196" cy="460" r="1" fill="#ffffff" opacity="0.045"/>
<circle cx="1196" cy="506" r="1" fill="#ffffff" opacity="0.045"/>
<circle cx="1196" cy="552" r="1" fill="#ffffff" opacity="0.045"/>
<circle cx="1196" cy="598" r="1" fill="#ffffff" opacity="0.045"/>
<circle cx="1196" cy="644" r="1" fill="#ffffff" opacity="0.045"/>
<circle cx="1196" cy="690" r="1" fill="#ffffff" opacity="0.045"/>
<circle cx="1196" cy="736" r="1" fill="#ffffff" opacity="0.045"/>
<circle cx="1196" cy="782" r="1" fill="#ffffff" opacity="0.045"/>
<circle cx="1196" cy="828" r="1" fill="#ffffff" opacity="0.045"/>
<circle cx="1196" cy="874" r="1" fill="#ffffff" opacity="0.045"/>
<circle cx="1196" cy="920" r="1" fill="#ffffff" opacity="0.045"/>
<circle cx="1196" cy="966" r="1" fill="#ffffff" opacity="0.045"/><path d="M0.0,138.1 Q100.0,138.1 200.0,203.6 Q300.0,203.6 400.0,173.1 Q500.0,173.1 600.0,91.3 Q700.0,91.3 800.0,78.0 Q900.0,78.0 1000.0,152.7 Q1100.0,152.7 1200.0,206.0 " stroke="url(#lineGrad)" stroke-width="1.6" fill="none" opacity="0.62"/><circle cx="200.0" cy="203.6" r="3.5" fill="url(#nodeGrad)" opacity="0.8196842336094918"/><circle cx="400.0" cy="173.1" r="10.7" fill="#c084fc" opacity="0.15" filter="url(#blurSm)"/><circle cx="400.0" cy="173.1" r="3.6" fill="url(#nodeGrad)" opacity="0.8196842336094918"/><path d="M0.0,330.2 Q100.0,330.2 200.0,323.1 Q300.0,323.1 400.0,234.3 Q500.0,234.3 600.0,194.0 Q700.0,194.0 800.0,261.2 Q900.0,261.2 1000.0,337.4 Q1100.0,337.4 1200.0,311.1 " stroke="url(#lineGrad)" stroke-width="2.2" fill="none" opacity="0.27"/><circle cx="200.0" cy="323.1" r="3.6" fill="url(#nodeGrad)" opacity="0.4667521345479384"/><circle cx="800.0" cy="261.2" r="2.1" fill="url(#nodeGrad)" opacity="0.4667521345479384"/><path d="M0.0,408.7 Q100.0,408.7 200.0,341.2 Q300.0,341.2 400.0,288.4 Q500.0,288.4 600.0,327.6 Q700.0,327.6 800.0,401.4 Q900.0,401.4 1000.0,401.7 Q1100.0,401.7 1200.0,328.0 " stroke="url(#lineGrad)" stroke-width="2.0" fill="none" opacity="0.43"/><circle cx="200.0" cy="341.2" r="3.6" fill="url(#nodeGrad)" opacity="0.6262124466626627"/><circle cx="400.0" cy="288.4" r="3.1" fill="url(#nodeGrad)" opacity="0.6262124466626627"/><circle cx="600.0" cy="327.6" r="13.5" fill="#c084fc" opacity="0.15" filter="url(#blurSm)"/><circle cx="600.0" cy="327.6" r="4.5" fill="url(#nodeGrad)" opacity="0.6262124466626627"/><circle cx="800.0" cy="401.4" r="2.8" fill="url(#nodeGrad)" opacity="0.6262124466626627"/><path d="M0.0,478.9 Q100.0,478.9 200.0,396.1 Q300.0,396.1 400.0,418.4 Q500.0,418.4 600.0,513.1 Q700.0,513.1 800.0,541.5 Q900.0,541.5 1000.0,461.9 Q1100.0,461.9 1200.0,391.0 " stroke="url(#lineGrad)" stroke-width="2.0" fill="none" opacity="0.41"/><circle cx="400.0" cy="418.4" r="4.1" fill="url(#nodeGrad)" opacity="0.6101599219673964"/><circle cx="800.0" cy="541.5" r="9.5" fill="#c084fc" opacity="0.15" filter="url(#blurSm)"/><circle cx="800.0" cy="541.5" r="3.2" fill="url(#nodeGrad)" opacity="0.6101599219673964"/><path d="M0.0,528.8 Q100.0,528.8 200.0,523.4 Q300.0,523.4 400.0,605.2 Q500.0,605.2 600.0,654.3 Q700.0,654.3 800.0,598.9 Q900.0,598.9 1000.0,520.0 Q1100.0,520.0 1200.0,533.4 " stroke="url(#lineGrad)" stroke-width="1.3" fill="none" opacity="0.56"/><circle cx="600.0" cy="654.3" r="3.9" fill="url(#nodeGrad)" opacity="0.7614043434706603"/><path d="M0.0,620.8 Q100.0,620.8 200.0,698.7 Q300.0,698.7 400.0,774.7 Q500.0,774.7 600.0,737.4 Q700.0,737.4 800.0,641.5 Q900.0,641.5 1000.0,627.5 Q1100.0,627.5 1200.0,715.9 " stroke="url(#lineGrad)" stroke-width="1.7" fill="none" opacity="0.32"/><circle cx="200.0" cy="698.7" r="7.4" fill="#c084fc" opacity="0.15" filter="url(#blurSm)"/><circle cx="200.0" cy="698.7" r="2.5" fill="url(#nodeGrad)" opacity="0.5210712512793465"/><circle cx="600.0" cy="737.4" r="2.3" fill="url(#nodeGrad)" opacity="0.5210712512793465"/><path d="M0.0,826.4 Q100.0,826.4 200.0,917.0 Q300.0,917.0 400.0,907.7 Q500.0,907.7 600.0,812.2 Q700.0,812.2 800.0,770.3 Q900.0,770.3 1000.0,843.5 Q1100.0,843.5 1200.0,924.5 " stroke="url(#lineGrad)" stroke-width="2.1" fill="none" opacity="0.37"/><circle cx="600.0" cy="812.2" r="3.6" fill="url(#nodeGrad)" opacity="0.5716580599483958"/><circle cx="800.0" cy="770.3" r="2.5" fill="url(#nodeGrad)" opacity="0.5716580599483958"/><circle cx="1000.0" cy="843.5" r="2.8" fill="url(#nodeGrad)" opacity="0.5716580599483958"/><text x="50" y="55" font-family="JetBrains Mono, monospace" font-size="13" fill="#c084fc" letter-spacing="0.15em" text-anchor="start" opacity="1">LIVE LIQUIDITY STREAM</text><text x="50" y="78" font-family="JetBrains Mono, monospace" font-size="10" fill="#4a4a55" letter-spacing="0.15em" text-anchor="start" opacity="1">CROSS-CHAIN FLOW TELEMETRY</text></svg>