<svg width="1000" height="750" viewBox="0 0 1000 750" xmlns="http://www.w3.org/2000/svg">

  <defs>
    <linearGradient id="bgGrad" x1="0" y1="0" x2="1" y2="1">
      <stop offset="0%" stop-color="#030305"/>
      <stop offset="55%" stop-color="#0b0713"/>
      <stop offset="100%" stop-color="#170a26"/>
    </linearGradient>
    <radialGradient id="glow" cx="50%" cy="50%" r="60%">
      <stop offset="0%" stop-color="#c084fc" stop-opacity="0.35"/>
      <stop offset="100%" stop-color="#c084fc" stop-opacity="0"/>
    </radialGradient>
    <linearGradient id="lineGrad" x1="0" y1="0" x2="1" y2="0">
      <stop offset="0%" stop-color="#c084fc" stop-opacity="0"/>
      <stop offset="50%" stop-color="#c084fc" stop-opacity="0.9"/>
      <stop offset="100%" stop-color="#a855f7" stop-opacity="0"/>
    </linearGradient>
    <radialGradient id="nodeGrad" cx="35%" cy="35%" r="65%">
      <stop offset="0%" stop-color="#c084fc"/>
      <stop offset="100%" stop-color="#6d28d9"/>
    </radialGradient>
    <filter id="blurSm" x="-50%" y="-50%" width="200%" height="200%">
      <feGaussianBlur stdDeviation="6"/>
    </filter>
    <filter id="blurLg" x="-50%" y="-50%" width="200%" height="200%">
      <feGaussianBlur stdDeviation="45"/>
    </filter>
    
  </defs>

  <rect width="1000" height="750" fill="url(#bgGrad)"/>
  <circle cx="500.0" cy="375.0" r="340" fill="url(#glow)" filter="url(#blurLg)"/>
<circle cx="0" cy="0" r="1" fill="#ffffff" opacity="0.045"/>
<circle cx="0" cy="42" r="1" fill="#ffffff" opacity="0.045"/>
<circle cx="0" cy="84" r="1" fill="#ffffff" opacity="0.045"/>
<circle cx="0" cy="126" r="1" fill="#ffffff" opacity="0.045"/>
<circle cx="0" cy="168" r="1" fill="#ffffff" opacity="0.045"/>
<circle cx="0" cy="210" r="1" fill="#ffffff" opacity="0.045"/>
<circle cx="0" cy="252" r="1" fill="#ffffff" opacity="0.045"/>
<circle cx="0" cy="294" r="1" fill="#ffffff" opacity="0.045"/>
<circle cx="0" cy="336" r="1" fill="#ffffff" opacity="0.045"/>
<circle cx="0" cy="378" r="1" fill="#ffffff" opacity="0.045"/>
<circle cx="0" cy="420" r="1" fill="#ffffff" opacity="0.045"/>
<circle cx="0" cy="462" r="1" fill="#ffffff" opacity="0.045"/>
<circle cx="0" cy="504" r="1" fill="#ffffff" opacity="0.045"/>
<circle cx="0" cy="546" r="1" fill="#ffffff" opacity="0.045"/>
<circle cx="0" cy="588" r="1" fill="#ffffff" opacity="0.045"/>
<circle cx="0" cy="630" r="1" fill="#ffffff" opacity="0.045"/>
<circle cx="0" cy="672" r="1" fill="#ffffff" opacity="0.045"/>
<circle cx="0" cy="714" r="1" fill="#ffffff" opacity="0.045"/>
<circle cx="42" cy="0" r="1" fill="#ffffff" opacity="0.045"/>
<circle cx="42" cy="42" r="1" fill="#ffffff" opacity="0.045"/>
<circle cx="42" cy="84" r="1" fill="#ffffff" opacity="0.045"/>
<circle cx="42" cy="126" r="1" fill="#ffffff" opacity="0.045"/>
<circle cx="42" cy="168" r="1" fill="#ffffff" opacity="0.045"/>
<circle cx="42" cy="210" r="1" fill="#ffffff" opacity="0.045"/>
<circle cx="42" cy="252" r="1" fill="#ffffff" opacity="0.045"/>
<circle cx="42" cy="294" r="1" fill="#ffffff" opacity="0.045"/>
<circle cx="42" cy="336" r="1" fill="#ffffff" opacity="0.045"/>
<circle cx="42" cy="378" r="1" fill="#ffffff" opacity="0.045"/>
<circle cx="42" cy="420" r="1" fill="#ffffff" opacity="0.045"/>
<circle cx="42" cy="462" r="1" fill="#ffffff" opacity="0.045"/>
<circle cx="42" cy="504" r="1" fill="#ffffff" opacity="0.045"/>
<circle cx="42" cy="546" r="1" fill="#ffffff" opacity="0.045"/>
<circle cx="42" cy="588" r="1" fill="#ffffff" opacity="0.045"/>
<circle cx="42" cy="630" r="1" fill="#ffffff" opacity="0.045"/>
<circle cx="42" cy="672" r="1" fill="#ffffff" opacity="0.045"/>
<circle cx="42" cy="714" r="1" fill="#ffffff" opacity="0.045"/>
<circle cx="84" cy="0" r="1" fill="#ffffff" opacity="0.045"/>
<circle cx="84" cy="42" r="1" fill="#ffffff" opacity="0.045"/>
<circle cx="84" cy="84" r="1" fill="#ffffff" opacity="0.045"/>
<circle cx="84" cy="126" r="1" fill="#ffffff" opacity="0.045"/>
<circle cx="84" cy="168" r="1" fill="#ffffff" opacity="0.045"/>
<circle cx="84" cy="210" r="1" fill="#ffffff" opacity="0.045"/>
<circle cx="84" cy="252" r="1" fill="#ffffff" opacity="0.045"/>
<circle cx="84" cy="294" r="1" fill="#ffffff" opacity="0.045"/>
<circle cx="84" cy="336" r="1" fill="#ffffff" opacity="0.045"/>
<circle cx="84" cy="378" r="1" fill="#ffffff" opacity="0.045"/>
<circle cx="84" cy="420" r="1" fill="#ffffff" opacity="0.045"/>
<circle cx="84" cy="462" r="1" fill="#ffffff" opacity="0.045"/>
<circle cx="84" cy="504" r="1" fill="#ffffff" opacity="0.045"/>
<circle cx="84" cy="546" r="1" fill="#ffffff" opacity="0.045"/>
<circle cx="84" cy="588" r="1" fill="#ffffff" opacity="0.045"/>
<circle cx="84" cy="630" r="1" fill="#ffffff" opacity="0.045"/>
<circle cx="84" cy="672" r="1" fill="#ffffff" opacity="0.045"/>
<circle cx="84" cy="714" r="1" fill="#ffffff" opacity="0.045"/>
<circle cx="126" cy="0" r="1" fill="#ffffff" opacity="0.045"/>
<circle cx="126" cy="42" r="1" fill="#ffffff" opacity="0.045"/>
<circle cx="126" cy="84" r="1" fill="#ffffff" opacity="0.045"/>
<circle cx="126" cy="126" r="1" fill="#ffffff" opacity="0.045"/>
<circle cx="126" cy="168" r="1" fill="#ffffff" opacity="0.045"/>
<circle cx="126" cy="210" r="1" fill="#ffffff" opacity="0.045"/>
<circle cx="126" cy="252" r="1" fill="#ffffff" opacity="0.045"/>
<circle cx="126" cy="294" r="1" fill="#ffffff" opacity="0.045"/>
<circle cx="126" cy="336" r="1" fill="#ffffff" opacity="0.045"/>
<circle cx="126" cy="378" r="1" fill="#ffffff" opacity="0.045"/>
<circle cx="126" cy="420" r="1" fill="#ffffff" opacity="0.045"/>
<circle cx="126" cy="462" r="1" fill="#ffffff" opacity="0.045"/>
<circle cx="126" cy="504" r="1" fill="#ffffff" opacity="0.045"/>
<circle cx="126" cy="546" r="1" fill="#ffffff" opacity="0.045"/>
<circle cx="126" cy="588" r="1" fill="#ffffff" opacity="0.045"/>
<circle cx="126" cy="630" r="1" fill="#ffffff" opacity="0.045"/>
<circle cx="126" cy="672" r="1" fill="#ffffff" opacity="0.045"/>
<circle cx="126" cy="714" r="1" fill="#ffffff" opacity="0.045"/>
<circle cx="168" cy="0" r="1" fill="#ffffff" opacity="0.045"/>
<circle cx="168" cy="42" r="1" fill="#ffffff" opacity="0.045"/>
<circle cx="168" cy="84" r="1" fill="#ffffff" opacity="0.045"/>
<circle cx="168" cy="126" r="1" fill="#ffffff" opacity="0.045"/>
<circle cx="168" cy="168" r="1" fill="#ffffff" opacity="0.045"/>
<circle cx="168" cy="210" r="1" fill="#ffffff" opacity="0.045"/>
<circle cx="168" cy="252" r="1" fill="#ffffff" opacity="0.045"/>
<circle cx="168" cy="294" r="1" fill="#ffffff" opacity="0.045"/>
<circle cx="168" cy="336" r="1" fill="#ffffff" opacity="0.045"/>
<circle cx="168" cy="378" r="1" fill="#ffffff" opacity="0.045"/>
<circle cx="168" cy="420" r="1" fill="#ffffff" opacity="0.045"/>
<circle cx="168" cy="462" r="1" fill="#ffffff" opacity="0.045"/>
<circle cx="168" cy="504" r="1" fill="#ffffff" opacity="0.045"/>
<circle cx="168" cy="546" r="1" fill="#ffffff" opacity="0.045"/>
<circle cx="168" cy="588" r="1" fill="#ffffff" opacity="0.045"/>
<circle cx="168" cy="630" r="1" fill="#ffffff" opacity="0.045"/>
<circle cx="168" cy="672" r="1" fill="#ffffff" opacity="0.045"/>
<circle cx="168" cy="714" r="1" fill="#ffffff" opacity="0.045"/>
<circle cx="210" cy="0" r="1" fill="#ffffff" opacity="0.045"/>
<circle cx="210" cy="42" r="1" fill="#ffffff" opacity="0.045"/>
<circle cx="210" cy="84" r="1" fill="#ffffff" opacity="0.045"/>
<circle cx="210" cy="126" r="1" fill="#ffffff" opacity="0.045"/>
<circle cx="210" cy="168" r="1" fill="#ffffff" opacity="0.045"/>
<circle cx="210" cy="210" r="1" fill="#ffffff" opacity="0.045"/>
<circle cx="210" cy="252" r="1" fill="#ffffff" opacity="0.045"/>
<circle cx="210" cy="294" r="1" fill="#ffffff" opacity="0.045"/>
<circle cx="210" cy="336" r="1" fill="#ffffff" opacity="0.045"/>
<circle cx="210" cy="378" r="1" fill="#ffffff" opacity="0.045"/>
<circle cx="210" cy="420" r="1" fill="#ffffff" opacity="0.045"/>
<circle cx="210" cy="462" r="1" fill="#ffffff" opacity="0.045"/>
<circle cx="210" cy="504" r="1" fill="#ffffff" opacity="0.045"/>
<circle cx="210" cy="546" r="1" fill="#ffffff" opacity="0.045"/>
<circle cx="210" cy="588" r="1" fill="#ffffff" opacity="0.045"/>
<circle cx="210" cy="630" r="1" fill="#ffffff" opacity="0.045"/>
<circle cx="210" cy="672" r="1" fill="#ffffff" opacity="0.045"/>
<circle cx="210" cy="714" r="1" fill="#ffffff" opacity="0.045"/>
<circle cx="252" cy="0" r="1" fill="#ffffff" opacity="0.045"/>
<circle cx="252" cy="42" r="1" fill="#ffffff" opacity="0.045"/>
<circle cx="252" cy="84" r="1" fill="#ffffff" opacity="0.045"/>
<circle cx="252" cy="126" r="1" fill="#ffffff" opacity="0.045"/>
<circle cx="252" cy="168" r="1" fill="#ffffff" opacity="0.045"/>
<circle cx="252" cy="210" r="1" fill="#ffffff" opacity="0.045"/>
<circle cx="252" cy="252" r="1" fill="#ffffff" opacity="0.045"/>
<circle cx="252" cy="294" r="1" fill="#ffffff" opacity="0.045"/>
<circle cx="252" cy="336" r="1" fill="#ffffff" opacity="0.045"/>
<circle cx="252" cy="378" r="1" fill="#ffffff" opacity="0.045"/>
<circle cx="252" cy="420" r="1" fill="#ffffff" opacity="0.045"/>
<circle cx="252" cy="462" r="1" fill="#ffffff" opacity="0.045"/>
<circle cx="252" cy="504" r="1" fill="#ffffff" opacity="0.045"/>
<circle cx="252" cy="546" r="1" fill="#ffffff" opacity="0.045"/>
<circle cx="252" cy="588" r="1" fill="#ffffff" opacity="0.045"/>
<circle cx="252" cy="630" r="1" fill="#ffffff" opacity="0.045"/>
<circle cx="252" cy="672" r="1" fill="#ffffff" opacity="0.045"/>
<circle cx="252" cy="714" r="1" fill="#ffffff" opacity="0.045"/>
<circle cx="294" cy="0" r="1" fill="#ffffff" opacity="0.045"/>
<circle cx="294" cy="42" r="1" fill="#ffffff" opacity="0.045"/>
<circle cx="294" cy="84" r="1" fill="#ffffff" opacity="0.045"/>
<circle cx="294" cy="126" r="1" fill="#ffffff" opacity="0.045"/>
<circle cx="294" cy="168" r="1" fill="#ffffff" opacity="0.045"/>
<circle cx="294" cy="210" r="1" fill="#ffffff" opacity="0.045"/>
<circle cx="294" cy="252" r="1" fill="#ffffff" opacity="0.045"/>
<circle cx="294" cy="294" r="1" fill="#ffffff" opacity="0.045"/>
<circle cx="294" cy="336" r="1" fill="#ffffff" opacity="0.045"/>
<circle cx="294" cy="378" r="1" fill="#ffffff" opacity="0.045"/>
<circle cx="294" cy="420" r="1" fill="#ffffff" opacity="0.045"/>
<circle cx="294" cy="462" r="1" fill="#ffffff" opacity="0.045"/>
<circle cx="294" cy="504" r="1" fill="#ffffff" opacity="0.045"/>
<circle cx="294" cy="546" r="1" fill="#ffffff" opacity="0.045"/>
<circle cx="294" cy="588" r="1" fill="#ffffff" opacity="0.045"/>
<circle cx="294" cy="630" r="1" fill="#ffffff" opacity="0.045"/>
<circle cx="294" cy="672" r="1" fill="#ffffff" opacity="0.045"/>
<circle cx="294" cy="714" r="1" fill="#ffffff" opacity="0.045"/>
<circle cx="336" cy="0" r="1" fill="#ffffff" opacity="0.045"/>
<circle cx="336" cy="42" r="1" fill="#ffffff" opacity="0.045"/>
<circle cx="336" cy="84" r="1" fill="#ffffff" opacity="0.045"/>
<circle cx="336" cy="126" r="1" fill="#ffffff" opacity="0.045"/>
<circle cx="336" cy="168" r="1" fill="#ffffff" opacity="0.045"/>
<circle cx="336" cy="210" r="1" fill="#ffffff" opacity="0.045"/>
<circle cx="336" cy="252" r="1" fill="#ffffff" opacity="0.045"/>
<circle cx="336" cy="294" r="1" fill="#ffffff" opacity="0.045"/>
<circle cx="336" cy="336" r="1" fill="#ffffff" opacity="0.045"/>
<circle cx="336" cy="378" r="1" fill="#ffffff" opacity="0.045"/>
<circle cx="336" cy="420" r="1" fill="#ffffff" opacity="0.045"/>
<circle cx="336" cy="462" r="1" fill="#ffffff" opacity="0.045"/>
<circle cx="336" cy="504" r="1" fill="#ffffff" opacity="0.045"/>
<circle cx="336" cy="546" r="1" fill="#ffffff" opacity="0.045"/>
<circle cx="336" cy="588" r="1" fill="#ffffff" opacity="0.045"/>
<circle cx="336" cy="630" r="1" fill="#ffffff" opacity="0.045"/>
<circle cx="336" cy="672" r="1" fill="#ffffff" opacity="0.045"/>
<circle cx="336" cy="714" r="1" fill="#ffffff" opacity="0.045"/>
<circle cx="378" cy="0" r="1" fill="#ffffff" opacity="0.045"/>
<circle cx="378" cy="42" r="1" fill="#ffffff" opacity="0.045"/>
<circle cx="378" cy="84" r="1" fill="#ffffff" opacity="0.045"/>
<circle cx="378" cy="126" r="1" fill="#ffffff" opacity="0.045"/>
<circle cx="378" cy="168" r="1" fill="#ffffff" opacity="0.045"/>
<circle cx="378" cy="210" r="1" fill="#ffffff" opacity="0.045"/>
<circle cx="378" cy="252" r="1" fill="#ffffff" opacity="0.045"/>
<circle cx="378" cy="294" r="1" fill="#ffffff" opacity="0.045"/>
<circle cx="378" cy="336" r="1" fill="#ffffff" opacity="0.045"/>
<circle cx="378" cy="378" r="1" fill="#ffffff" opacity="0.045"/>
<circle cx="378" cy="420" r="1" fill="#ffffff" opacity="0.045"/>
<circle cx="378" cy="462" r="1" fill="#ffffff" opacity="0.045"/>
<circle cx="378" cy="504" r="1" fill="#ffffff" opacity="0.045"/>
<circle cx="378" cy="546" r="1" fill="#ffffff" opacity="0.045"/>
<circle cx="378" cy="588" r="1" fill="#ffffff" opacity="0.045"/>
<circle cx="378" cy="630" r="1" fill="#ffffff" opacity="0.045"/>
<circle cx="378" cy="672" r="1" fill="#ffffff" opacity="0.045"/>
<circle cx="378" cy="714" r="1" fill="#ffffff" opacity="0.045"/>
<circle cx="420" cy="0" r="1" fill="#ffffff" opacity="0.045"/>
<circle cx="420" cy="42" r="1" fill="#ffffff" opacity="0.045"/>
<circle cx="420" cy="84" r="1" fill="#ffffff" opacity="0.045"/>
<circle cx="420" cy="126" r="1" fill="#ffffff" opacity="0.045"/>
<circle cx="420" cy="168" r="1" fill="#ffffff" opacity="0.045"/>
<circle cx="420" cy="210" r="1" fill="#ffffff" opacity="0.045"/>
<circle cx="420" cy="252" r="1" fill="#ffffff" opacity="0.045"/>
<circle cx="420" cy="294" r="1" fill="#ffffff" opacity="0.045"/>
<circle cx="420" cy="336" r="1" fill="#ffffff" opacity="0.045"/>
<circle cx="420" cy="378" r="1" fill="#ffffff" opacity="0.045"/>
<circle cx="420" cy="420" r="1" fill="#ffffff" opacity="0.045"/>
<circle cx="420" cy="462" r="1" fill="#ffffff" opacity="0.045"/>
<circle cx="420" cy="504" r="1" fill="#ffffff" opacity="0.045"/>
<circle cx="420" cy="546" r="1" fill="#ffffff" opacity="0.045"/>
<circle cx="420" cy="588" r="1" fill="#ffffff" opacity="0.045"/>
<circle cx="420" cy="630" r="1" fill="#ffffff" opacity="0.045"/>
<circle cx="420" cy="672" r="1" fill="#ffffff" opacity="0.045"/>
<circle cx="420" cy="714" r="1" fill="#ffffff" opacity="0.045"/>
<circle cx="462" cy="0" r="1" fill="#ffffff" opacity="0.045"/>
<circle cx="462" cy="42" r="1" fill="#ffffff" opacity="0.045"/>
<circle cx="462" cy="84" r="1" fill="#ffffff" opacity="0.045"/>
<circle cx="462" cy="126" r="1" fill="#ffffff" opacity="0.045"/>
<circle cx="462" cy="168" r="1" fill="#ffffff" opacity="0.045"/>
<circle cx="462" cy="210" r="1" fill="#ffffff" opacity="0.045"/>
<circle cx="462" cy="252" r="1" fill="#ffffff" opacity="0.045"/>
<circle cx="462" cy="294" r="1" fill="#ffffff" opacity="0.045"/>
<circle cx="462" cy="336" r="1" fill="#ffffff" opacity="0.045"/>
<circle cx="462" cy="378" r="1" fill="#ffffff" opacity="0.045"/>
<circle cx="462" cy="420" r="1" fill="#ffffff" opacity="0.045"/>
<circle cx="462" cy="462" r="1" fill="#ffffff" opacity="0.045"/>
<circle cx="462" cy="504" r="1" fill="#ffffff" opacity="0.045"/>
<circle cx="462" cy="546" r="1" fill="#ffffff" opacity="0.045"/>
<circle cx="462" cy="588" r="1" fill="#ffffff" opacity="0.045"/>
<circle cx="462" cy="630" r="1" fill="#ffffff" opacity="0.045"/>
<circle cx="462" cy="672" r="1" fill="#ffffff" opacity="0.045"/>
<circle cx="462" cy="714" r="1" fill="#ffffff" opacity="0.045"/>
<circle cx="504" cy="0" r="1" fill="#ffffff" opacity="0.045"/>
<circle cx="504" cy="42" r="1" fill="#ffffff" opacity="0.045"/>
<circle cx="504" cy="84" r="1" fill="#ffffff" opacity="0.045"/>
<circle cx="504" cy="126" r="1" fill="#ffffff" opacity="0.045"/>
<circle cx="504" cy="168" r="1" fill="#ffffff" opacity="0.045"/>
<circle cx="504" cy="210" r="1" fill="#ffffff" opacity="0.045"/>
<circle cx="504" cy="252" r="1" fill="#ffffff" opacity="0.045"/>
<circle cx="504" cy="294" r="1" fill="#ffffff" opacity="0.045"/>
<circle cx="504" cy="336" r="1" fill="#ffffff" opacity="0.045"/>
<circle cx="504" cy="378" r="1" fill="#ffffff" opacity="0.045"/>
<circle cx="504" cy="420" r="1" fill="#ffffff" opacity="0.045"/>
<circle cx="504" cy="462" r="1" fill="#ffffff" opacity="0.045"/>
<circle cx="504" cy="504" r="1" fill="#ffffff" opacity="0.045"/>
<circle cx="504" cy="546" r="1" fill="#ffffff" opacity="0.045"/>
<circle cx="504" cy="588" r="1" fill="#ffffff" opacity="0.045"/>
<circle cx="504" cy="630" r="1" fill="#ffffff" opacity="0.045"/>
<circle cx="504" cy="672" r="1" fill="#ffffff" opacity="0.045"/>
<circle cx="504" cy="714" r="1" fill="#ffffff" opacity="0.045"/>
<circle cx="546" cy="0" r="1" fill="#ffffff" opacity="0.045"/>
<circle cx="546" cy="42" r="1" fill="#ffffff" opacity="0.045"/>
<circle cx="546" cy="84" r="1" fill="#ffffff" opacity="0.045"/>
<circle cx="546" cy="126" r="1" fill="#ffffff" opacity="0.045"/>
<circle cx="546" cy="168" r="1" fill="#ffffff" opacity="0.045"/>
<circle cx="546" cy="210" r="1" fill="#ffffff" opacity="0.045"/>
<circle cx="546" cy="252" r="1" fill="#ffffff" opacity="0.045"/>
<circle cx="546" cy="294" r="1" fill="#ffffff" opacity="0.045"/>
<circle cx="546" cy="336" r="1" fill="#ffffff" opacity="0.045"/>
<circle cx="546" cy="378" r="1" fill="#ffffff" opacity="0.045"/>
<circle cx="546" cy="420" r="1" fill="#ffffff" opacity="0.045"/>
<circle cx="546" cy="462" r="1" fill="#ffffff" opacity="0.045"/>
<circle cx="546" cy="504" r="1" fill="#ffffff" opacity="0.045"/>
<circle cx="546" cy="546" r="1" fill="#ffffff" opacity="0.045"/>
<circle cx="546" cy="588" r="1" fill="#ffffff" opacity="0.045"/>
<circle cx="546" cy="630" r="1" fill="#ffffff" opacity="0.045"/>
<circle cx="546" cy="672" r="1" fill="#ffffff" opacity="0.045"/>
<circle cx="546" cy="714" r="1" fill="#ffffff" opacity="0.045"/>
<circle cx="588" cy="0" r="1" fill="#ffffff" opacity="0.045"/>
<circle cx="588" cy="42" r="1" fill="#ffffff" opacity="0.045"/>
<circle cx="588" cy="84" r="1" fill="#ffffff" opacity="0.045"/>
<circle cx="588" cy="126" r="1" fill="#ffffff" opacity="0.045"/>
<circle cx="588" cy="168" r="1" fill="#ffffff" opacity="0.045"/>
<circle cx="588" cy="210" r="1" fill="#ffffff" opacity="0.045"/>
<circle cx="588" cy="252" r="1" fill="#ffffff" opacity="0.045"/>
<circle cx="588" cy="294" r="1" fill="#ffffff" opacity="0.045"/>
<circle cx="588" cy="336" r="1" fill="#ffffff" opacity="0.045"/>
<circle cx="588" cy="378" r="1" fill="#ffffff" opacity="0.045"/>
<circle cx="588" cy="420" r="1" fill="#ffffff" opacity="0.045"/>
<circle cx="588" cy="462" r="1" fill="#ffffff" opacity="0.045"/>
<circle cx="588" cy="504" r="1" fill="#ffffff" opacity="0.045"/>
<circle cx="588" cy="546" r="1" fill="#ffffff" opacity="0.045"/>
<circle cx="588" cy="588" r="1" fill="#ffffff" opacity="0.045"/>
<circle cx="588" cy="630" r="1" fill="#ffffff" opacity="0.045"/>
<circle cx="588" cy="672" r="1" fill="#ffffff" opacity="0.045"/>
<circle cx="588" cy="714" r="1" fill="#ffffff" opacity="0.045"/>
<circle cx="630" cy="0" r="1" fill="#ffffff" opacity="0.045"/>
<circle cx="630" cy="42" r="1" fill="#ffffff" opacity="0.045"/>
<circle cx="630" cy="84" r="1" fill="#ffffff" opacity="0.045"/>
<circle cx="630" cy="126" r="1" fill="#ffffff" opacity="0.045"/>
<circle cx="630" cy="168" r="1" fill="#ffffff" opacity="0.045"/>
<circle cx="630" cy="210" r="1" fill="#ffffff" opacity="0.045"/>
<circle cx="630" cy="252" r="1" fill="#ffffff" opacity="0.045"/>
<circle cx="630" cy="294" r="1" fill="#ffffff" opacity="0.045"/>
<circle cx="630" cy="336" r="1" fill="#ffffff" opacity="0.045"/>
<circle cx="630" cy="378" r="1" fill="#ffffff" opacity="0.045"/>
<circle cx="630" cy="420" r="1" fill="#ffffff" opacity="0.045"/>
<circle cx="630" cy="462" r="1" fill="#ffffff" opacity="0.045"/>
<circle cx="630" cy="504" r="1" fill="#ffffff" opacity="0.045"/>
<circle cx="630" cy="546" r="1" fill="#ffffff" opacity="0.045"/>
<circle cx="630" cy="588" r="1" fill="#ffffff" opacity="0.045"/>
<circle cx="630" cy="630" r="1" fill="#ffffff" opacity="0.045"/>
<circle cx="630" cy="672" r="1" fill="#ffffff" opacity="0.045"/>
<circle cx="630" cy="714" r="1" fill="#ffffff" opacity="0.045"/>
<circle cx="672" cy="0" r="1" fill="#ffffff" opacity="0.045"/>
<circle cx="672" cy="42" r="1" fill="#ffffff" opacity="0.045"/>
<circle cx="672" cy="84" r="1" fill="#ffffff" opacity="0.045"/>
<circle cx="672" cy="126" r="1" fill="#ffffff" opacity="0.045"/>
<circle cx="672" cy="168" r="1" fill="#ffffff" opacity="0.045"/>
<circle cx="672" cy="210" r="1" fill="#ffffff" opacity="0.045"/>
<circle cx="672" cy="252" r="1" fill="#ffffff" opacity="0.045"/>
<circle cx="672" cy="294" r="1" fill="#ffffff" opacity="0.045"/>
<circle cx="672" cy="336" r="1" fill="#ffffff" opacity="0.045"/>
<circle cx="672" cy="378" r="1" fill="#ffffff" opacity="0.045"/>
<circle cx="672" cy="420" r="1" fill="#ffffff" opacity="0.045"/>
<circle cx="672" cy="462" r="1" fill="#ffffff" opacity="0.045"/>
<circle cx="672" cy="504" r="1" fill="#ffffff" opacity="0.045"/>
<circle cx="672" cy="546" r="1" fill="#ffffff" opacity="0.045"/>
<circle cx="672" cy="588" r="1" fill="#ffffff" opacity="0.045"/>
<circle cx="672" cy="630" r="1" fill="#ffffff" opacity="0.045"/>
<circle cx="672" cy="672" r="1" fill="#ffffff" opacity="0.045"/>
<circle cx="672" cy="714" r="1" fill="#ffffff" opacity="0.045"/>
<circle cx="714" cy="0" r="1" fill="#ffffff" opacity="0.045"/>
<circle cx="714" cy="42" r="1" fill="#ffffff" opacity="0.045"/>
<circle cx="714" cy="84" r="1" fill="#ffffff" opacity="0.045"/>
<circle cx="714" cy="126" r="1" fill="#ffffff" opacity="0.045"/>
<circle cx="714" cy="168" r="1" fill="#ffffff" opacity="0.045"/>
<circle cx="714" cy="210" r="1" fill="#ffffff" opacity="0.045"/>
<circle cx="714" cy="252" r="1" fill="#ffffff" opacity="0.045"/>
<circle cx="714" cy="294" r="1" fill="#ffffff" opacity="0.045"/>
<circle cx="714" cy="336" r="1" fill="#ffffff" opacity="0.045"/>
<circle cx="714" cy="378" r="1" fill="#ffffff" opacity="0.045"/>
<circle cx="714" cy="420" r="1" fill="#ffffff" opacity="0.045"/>
<circle cx="714" cy="462" r="1" fill="#ffffff" opacity="0.045"/>
<circle cx="714" cy="504" r="1" fill="#ffffff" opacity="0.045"/>
<circle cx="714" cy="546" r="1" fill="#ffffff" opacity="0.045"/>
<circle cx="714" cy="588" r="1" fill="#ffffff" opacity="0.045"/>
<circle cx="714" cy="630" r="1" fill="#ffffff" opacity="0.045"/>
<circle cx="714" cy="672" r="1" fill="#ffffff" opacity="0.045"/>
<circle cx="714" cy="714" r="1" fill="#ffffff" opacity="0.045"/>
<circle cx="756" cy="0" r="1" fill="#ffffff" opacity="0.045"/>
<circle cx="756" cy="42" r="1" fill="#ffffff" opacity="0.045"/>
<circle cx="756" cy="84" r="1" fill="#ffffff" opacity="0.045"/>
<circle cx="756" cy="126" r="1" fill="#ffffff" opacity="0.045"/>
<circle cx="756" cy="168" r="1" fill="#ffffff" opacity="0.045"/>
<circle cx="756" cy="210" r="1" fill="#ffffff" opacity="0.045"/>
<circle cx="756" cy="252" r="1" fill="#ffffff" opacity="0.045"/>
<circle cx="756" cy="294" r="1" fill="#ffffff" opacity="0.045"/>
<circle cx="756" cy="336" r="1" fill="#ffffff" opacity="0.045"/>
<circle cx="756" cy="378" r="1" fill="#ffffff" opacity="0.045"/>
<circle cx="756" cy="420" r="1" fill="#ffffff" opacity="0.045"/>
<circle cx="756" cy="462" r="1" fill="#ffffff" opacity="0.045"/>
<circle cx="756" cy="504" r="1" fill="#ffffff" opacity="0.045"/>
<circle cx="756" cy="546" r="1" fill="#ffffff" opacity="0.045"/>
<circle cx="756" cy="588" r="1" fill="#ffffff" opacity="0.045"/>
<circle cx="756" cy="630" r="1" fill="#ffffff" opacity="0.045"/>
<circle cx="756" cy="672" r="1" fill="#ffffff" opacity="0.045"/>
<circle cx="756" cy="714" r="1" fill="#ffffff" opacity="0.045"/>
<circle cx="798" cy="0" r="1" fill="#ffffff" opacity="0.045"/>
<circle cx="798" cy="42" r="1" fill="#ffffff" opacity="0.045"/>
<circle cx="798" cy="84" r="1" fill="#ffffff" opacity="0.045"/>
<circle cx="798" cy="126" r="1" fill="#ffffff" opacity="0.045"/>
<circle cx="798" cy="168" r="1" fill="#ffffff" opacity="0.045"/>
<circle cx="798" cy="210" r="1" fill="#ffffff" opacity="0.045"/>
<circle cx="798" cy="252" r="1" fill="#ffffff" opacity="0.045"/>
<circle cx="798" cy="294" r="1" fill="#ffffff" opacity="0.045"/>
<circle cx="798" cy="336" r="1" fill="#ffffff" opacity="0.045"/>
<circle cx="798" cy="378" r="1" fill="#ffffff" opacity="0.045"/>
<circle cx="798" cy="420" r="1" fill="#ffffff" opacity="0.045"/>
<circle cx="798" cy="462" r="1" fill="#ffffff" opacity="0.045"/>
<circle cx="798" cy="504" r="1" fill="#ffffff" opacity="0.045"/>
<circle cx="798" cy="546" r="1" fill="#ffffff" opacity="0.045"/>
<circle cx="798" cy="588" r="1" fill="#ffffff" opacity="0.045"/>
<circle cx="798" cy="630" r="1" fill="#ffffff" opacity="0.045"/>
<circle cx="798" cy="672" r="1" fill="#ffffff" opacity="0.045"/>
<circle cx="798" cy="714" r="1" fill="#ffffff" opacity="0.045"/>
<circle cx="840" cy="0" r="1" fill="#ffffff" opacity="0.045"/>
<circle cx="840" cy="42" r="1" fill="#ffffff" opacity="0.045"/>
<circle cx="840" cy="84" r="1" fill="#ffffff" opacity="0.045"/>
<circle cx="840" cy="126" r="1" fill="#ffffff" opacity="0.045"/>
<circle cx="840" cy="168" r="1" fill="#ffffff" opacity="0.045"/>
<circle cx="840" cy="210" r="1" fill="#ffffff" opacity="0.045"/>
<circle cx="840" cy="252" r="1" fill="#ffffff" opacity="0.045"/>
<circle cx="840" cy="294" r="1" fill="#ffffff" opacity="0.045"/>
<circle cx="840" cy="336" r="1" fill="#ffffff" opacity="0.045"/>
<circle cx="840" cy="378" r="1" fill="#ffffff" opacity="0.045"/>
<circle cx="840" cy="420" r="1" fill="#ffffff" opacity="0.045"/>
<circle cx="840" cy="462" r="1" fill="#ffffff" opacity="0.045"/>
<circle cx="840" cy="504" r="1" fill="#ffffff" opacity="0.045"/>
<circle cx="840" cy="546" r="1" fill="#ffffff" opacity="0.045"/>
<circle cx="840" cy="588" r="1" fill="#ffffff" opacity="0.045"/>
<circle cx="840" cy="630" r="1" fill="#ffffff" opacity="0.045"/>
<circle cx="840" cy="672" r="1" fill="#ffffff" opacity="0.045"/>
<circle cx="840" cy="714" r="1" fill="#ffffff" opacity="0.045"/>
<circle cx="882" cy="0" r="1" fill="#ffffff" opacity="0.045"/>
<circle cx="882" cy="42" r="1" fill="#ffffff" opacity="0.045"/>
<circle cx="882" cy="84" r="1" fill="#ffffff" opacity="0.045"/>
<circle cx="882" cy="126" r="1" fill="#ffffff" opacity="0.045"/>
<circle cx="882" cy="168" r="1" fill="#ffffff" opacity="0.045"/>
<circle cx="882" cy="210" r="1" fill="#ffffff" opacity="0.045"/>
<circle cx="882" cy="252" r="1" fill="#ffffff" opacity="0.045"/>
<circle cx="882" cy="294" r="1" fill="#ffffff" opacity="0.045"/>
<circle cx="882" cy="336" r="1" fill="#ffffff" opacity="0.045"/>
<circle cx="882" cy="378" r="1" fill="#ffffff" opacity="0.045"/>
<circle cx="882" cy="420" r="1" fill="#ffffff" opacity="0.045"/>
<circle cx="882" cy="462" r="1" fill="#ffffff" opacity="0.045"/>
<circle cx="882" cy="504" r="1" fill="#ffffff" opacity="0.045"/>
<circle cx="882" cy="546" r="1" fill="#ffffff" opacity="0.045"/>
<circle cx="882" cy="588" r="1" fill="#ffffff" opacity="0.045"/>
<circle cx="882" cy="630" r="1" fill="#ffffff" opacity="0.045"/>
<circle cx="882" cy="672" r="1" fill="#ffffff" opacity="0.045"/>
<circle cx="882" cy="714" r="1" fill="#ffffff" opacity="0.045"/>
<circle cx="924" cy="0" r="1" fill="#ffffff" opacity="0.045"/>
<circle cx="924" cy="42" r="1" fill="#ffffff" opacity="0.045"/>
<circle cx="924" cy="84" r="1" fill="#ffffff" opacity="0.045"/>
<circle cx="924" cy="126" r="1" fill="#ffffff" opacity="0.045"/>
<circle cx="924" cy="168" r="1" fill="#ffffff" opacity="0.045"/>
<circle cx="924" cy="210" r="1" fill="#ffffff" opacity="0.045"/>
<circle cx="924" cy="252" r="1" fill="#ffffff" opacity="0.045"/>
<circle cx="924" cy="294" r="1" fill="#ffffff" opacity="0.045"/>
<circle cx="924" cy="336" r="1" fill="#ffffff" opacity="0.045"/>
<circle cx="924" cy="378" r="1" fill="#ffffff" opacity="0.045"/>
<circle cx="924" cy="420" r="1" fill="#ffffff" opacity="0.045"/>
<circle cx="924" cy="462" r="1" fill="#ffffff" opacity="0.045"/>
<circle cx="924" cy="504" r="1" fill="#ffffff" opacity="0.045"/>
<circle cx="924" cy="546" r="1" fill="#ffffff" opacity="0.045"/>
<circle cx="924" cy="588" r="1" fill="#ffffff" opacity="0.045"/>
<circle cx="924" cy="630" r="1" fill="#ffffff" opacity="0.045"/>
<circle cx="924" cy="672" r="1" fill="#ffffff" opacity="0.045"/>
<circle cx="924" cy="714" r="1" fill="#ffffff" opacity="0.045"/>
<circle cx="966" cy="0" r="1" fill="#ffffff" opacity="0.045"/>
<circle cx="966" cy="42" r="1" fill="#ffffff" opacity="0.045"/>
<circle cx="966" cy="84" r="1" fill="#ffffff" opacity="0.045"/>
<circle cx="966" cy="126" r="1" fill="#ffffff" opacity="0.045"/>
<circle cx="966" cy="168" r="1" fill="#ffffff" opacity="0.045"/>
<circle cx="966" cy="210" r="1" fill="#ffffff" opacity="0.045"/>
<circle cx="966" cy="252" r="1" fill="#ffffff" opacity="0.045"/>
<circle cx="966" cy="294" r="1" fill="#ffffff" opacity="0.045"/>
<circle cx="966" cy="336" r="1" fill="#ffffff" opacity="0.045"/>
<circle cx="966" cy="378" r="1" fill="#ffffff" opacity="0.045"/>
<circle cx="966" cy="420" r="1" fill="#ffffff" opacity="0.045"/>
<circle cx="966" cy="462" r="1" fill="#ffffff" opacity="0.045"/>
<circle cx="966" cy="504" r="1" fill="#ffffff" opacity="0.045"/>
<circle cx="966" cy="546" r="1" fill="#ffffff" opacity="0.045"/>
<circle cx="966" cy="588" r="1" fill="#ffffff" opacity="0.045"/>
<circle cx="966" cy="630" r="1" fill="#ffffff" opacity="0.045"/>
<circle cx="966" cy="672" r="1" fill="#ffffff" opacity="0.045"/>
<circle cx="966" cy="714" r="1" fill="#ffffff" opacity="0.045"/><path d="M530.0,390.0 Q626.0,422.2 666.7,481.1" stroke="url(#lineGrad)" stroke-width="2" fill="none" opacity="0.55"/><circle cx="666.7" cy="481.1" r="10.8" fill="#c084fc" opacity="0.15" filter="url(#blurSm)"/><circle cx="666.7" cy="481.1" r="3.6" fill="url(#nodeGrad)" opacity="0.85"/><path d="M515.0,416.0 Q535.1,515.2 504.5,579.9" stroke="url(#lineGrad)" stroke-width="2" fill="none" opacity="0.55"/><circle cx="504.5" cy="579.9" r="10.8" fill="#c084fc" opacity="0.15" filter="url(#blurSm)"/><circle cx="504.5" cy="579.9" r="3.6" fill="url(#nodeGrad)" opacity="0.85"/><path d="M485.0,416.0 Q409.2,483.0 337.7,488.9" stroke="url(#lineGrad)" stroke-width="2" fill="none" opacity="0.55"/><circle cx="337.7" cy="488.9" r="10.8" fill="#c084fc" opacity="0.15" filter="url(#blurSm)"/><circle cx="337.7" cy="488.9" r="3.6" fill="url(#nodeGrad)" opacity="0.85"/><path d="M470.0,390.0 Q374.0,357.8 333.3,298.9" stroke="url(#lineGrad)" stroke-width="2" fill="none" opacity="0.55"/><circle cx="333.3" cy="298.9" r="10.8" fill="#c084fc" opacity="0.15" filter="url(#blurSm)"/><circle cx="333.3" cy="298.9" r="3.6" fill="url(#nodeGrad)" opacity="0.85"/><path d="M485.0,364.0 Q464.9,264.8 495.5,200.1" stroke="url(#lineGrad)" stroke-width="2" fill="none" opacity="0.55"/><circle cx="495.5" cy="200.1" r="10.8" fill="#c084fc" opacity="0.15" filter="url(#blurSm)"/><circle cx="495.5" cy="200.1" r="3.6" fill="url(#nodeGrad)" opacity="0.85"/><path d="M515.0,364.0 Q590.8,297.0 662.3,291.1" stroke="url(#lineGrad)" stroke-width="2" fill="none" opacity="0.55"/><circle cx="662.3" cy="291.1" r="10.8" fill="#c084fc" opacity="0.15" filter="url(#blurSm)"/><circle cx="662.3" cy="291.1" r="3.6" fill="url(#nodeGrad)" opacity="0.85"/><circle cx="500.0" cy="390.0" r="30.0" fill="#c084fc" opacity="0.15" filter="url(#blurSm)"/><circle cx="500.0" cy="390.0" r="10.0" fill="url(#nodeGrad)" opacity="1"/><circle cx="500.0" cy="390.0" r="230" fill="none" stroke="#c084fc" stroke-width="0.8" opacity="0.18"/><circle cx="500.0" cy="390.0" r="270" fill="none" stroke="#c084fc" stroke-width="0.8" opacity="0.18"/><text x="50" y="50" font-family="JetBrains Mono, monospace" font-size="13" fill="#c084fc" letter-spacing="0.15em" text-anchor="start" opacity="1">ROTOR AGENT</text><text x="50" y="72" font-family="JetBrains Mono, monospace" font-size="10" fill="#4a4a55" letter-spacing="0.15em" text-anchor="start" opacity="1">SECTOR ROTATION</text></svg>